<?xml version="1.0" encoding="UTF-8"?>
<svg version="1.1" xmlns="http://www.w3.org/2000/svg" width="351" height="328">
<path d="M0 0 C2.33985036 0.98465464 4.67335113 1.9845447 7 3 C9.09419849 3.67745904 11.19863968 4.32413829 13.3125 4.9375 C30.75165811 10.24157574 30.75165811 10.24157574 34 16 C34 16.99 34 17.98 34 19 C34.66 19 35.32 19 36 19 C36.25394531 19.51949219 36.50789063 20.03898437 36.76953125 20.57421875 C38.33132438 23.73875089 39.88376638 26.81319598 41.75 29.8125 C43 32 43 32 43 35 C41.0625 34.1875 41.0625 34.1875 39 33 C38.67 32.01 38.34 31.02 38 30 C36.69301153 29.28305972 35.35051961 28.63112518 34 28 C32.85877678 27.26953374 31.72967323 26.51998261 30.609375 25.7578125 C29.66771484 25.11779297 29.66771484 25.11779297 28.70703125 24.46484375 C27.4166225 23.58139026 26.12752679 22.6960154 24.83984375 21.80859375 C17.95882343 17.14183251 10.83363124 13.74749488 3 11 C1.989375 10.62875 0.97875 10.2575 -0.0625 9.875 C-6.75210923 7.88235044 -13.45700791 7.81744142 -20.375 7.8125 C-21.71691406 7.79413086 -21.71691406 7.79413086 -23.0859375 7.77539062 C-38.29462368 7.74223215 -53.47543708 12.94115456 -65 23 C-65.33 23.66 -65.66 24.32 -66 25 C-66.66 25 -67.32 25 -68 25 C-68.68620031 26.32338632 -69.34786461 27.65949948 -70 29 C-70.37125 29.7425 -70.7425 30.485 -71.125 31.25 C-72.53763716 35.68971679 -73.12823527 41.74352947 -71 46 C-68.75256244 47.15020525 -68.75256244 47.15020525 -66 48 C-65.05125 48.495 -64.1025 48.99 -63.125 49.5 C-55.72312444 53.05290027 -49.24093841 53.31867002 -41.125 53.25 C-40.0218042 53.24613281 -38.9186084 53.24226563 -37.78198242 53.23828125 C-29.89532176 53.15566838 -22.22670627 52.56647809 -14.42578125 51.4375 C-11.23699247 51.03026586 -8.20969982 50.92111337 -5 51 C-4.79536827 54.68337117 -5.05677765 56.86049963 -7 60 C-11.87963229 64.73332938 -17.20795381 68.75886223 -23.25 71.875 C-28.07169973 74.36563339 -32.42713368 77.25977625 -36.8125 80.4375 C-37.43479492 80.88013184 -38.05708984 81.32276367 -38.69824219 81.77880859 C-42.64322979 84.68625388 -45.72431834 87.80179632 -48.74487305 91.66430664 C-49.36616089 92.32547485 -49.36616089 92.32547485 -50 93 C-50.66 93 -51.32 93 -52 93 C-52.495 94.98 -52.495 94.98 -53 97 C-53.66 97 -54.32 97 -55 97 C-55.50044865 99.23015467 -55.99622844 101.46071492 -56.4765625 103.6953125 C-57 106 -57 106 -57.8125 108.5625 C-58.1096974 112.42606619 -56.52985299 115.50842164 -55 119 C-54.71125 119.78375 -54.4225 120.5675 -54.125 121.375 C-52.52082984 123.69213468 -50.61075848 124.00950972 -48 125 C-46.89519287 125.52001587 -46.89519287 125.52001587 -45.76806641 126.05053711 C-38.92029943 129.15632701 -32.83695145 129.66150864 -25.375 129.5625 C-23.66401123 129.55041504 -23.66401123 129.55041504 -21.91845703 129.53808594 C-12.52161882 129.31729682 -4.60187948 127.69419044 4 124 C4.75410156 123.7009375 5.50820312 123.401875 6.28515625 123.09375 C11.47299452 120.79277861 16.02643647 117.30696187 20.61010742 113.99707031 C24.79461349 111 24.79461349 111 27 111 C27 110.34 27 109.68 27 109 C27.66 109 28.32 109 29 109 C29.2475 108.43410156 29.495 107.86820312 29.75 107.28515625 C31.20235537 104.63006909 32.95184721 102.66260716 35 100.4375 C37.23360692 98.00270422 39.16225112 95.75662332 41 93 C41.66 93 42.32 93 43 93 C43.2165625 92.1028125 43.2165625 92.1028125 43.4375 91.1875 C43.8872439 89.43849596 44.42892341 87.71322977 45 86 C45.66 86 46.32 86 47 86 C47.33 84.35 47.66 82.7 48 81 C48.66 81.33 49.32 81.66 50 82 C52.04237602 90.16950406 50.96500818 98.74573363 50 107 C49.34 107 48.68 107 48 107 C47.91234375 107.58910156 47.8246875 108.17820312 47.734375 108.78515625 C46.80267808 111.59511452 45.53211708 112.5800626 43.25 114.4375 C40.86831487 116.41173635 38.7664966 118.25874701 36.6875 120.5625 C28.72948541 127.78023416 17.8956274 131.2173711 8 135 C7.24847656 135.309375 6.49695313 135.61875 5.72265625 135.9375 C-15.58672957 144.58739868 -44.98098378 146.41583509 -66.9765625 139.2890625 C-71.73693202 137.25944759 -75.34999528 134.6425405 -79 131 C-79.62003906 130.3915625 -80.24007812 129.783125 -80.87890625 129.15625 C-84.85418533 124.65523795 -85.92105995 120.72491597 -85.59765625 114.74609375 C-84.57085865 110.02819365 -81.93928479 106.73121645 -79 103 C-78.525625 102.175 -78.05125 101.35 -77.5625 100.5 C-73.4479205 93.9166728 -68.72152207 88.40611029 -62.69921875 83.5078125 C-60.76054426 81.91618686 -60.76054426 81.91618686 -59 79 C-58.34 79 -57.68 79 -57 79 C-55.47700477 76.06279492 -54.19899698 73.0831351 -53 70 C-54.11375 69.9175 -55.2275 69.835 -56.375 69.75 C-65.50822124 68.55800993 -73.43667976 64.45015955 -80 58 C-80.350625 57.2884375 -80.70125 56.576875 -81.0625 55.84375 C-81.91183762 53.63921357 -81.91183762 53.63921357 -85 53 C-86.95542188 50.01540871 -87 48.73585209 -87 45 C-87.66 45 -88.32 45 -89 45 C-89.54861209 35.74674279 -89.72097783 28.69731562 -84 21 C-83.34 20.01 -82.68 19.02 -82 18 C-81.34 18 -80.68 18 -80 18 C-79.90074219 17.40832031 -79.80148438 16.81664062 -79.69921875 16.20703125 C-77.65991881 9.77013478 -69.80351816 6.13953623 -64.25 3.1875 C-58.74286638 0.44323704 -53.43920138 -1.00832711 -47.328125 -1.7109375 C-31.78052545 -3.64134416 -15.48598918 -4.54480117 0 0 Z " fill="#9A0A0B" transform="translate(104,150)"/>
<path d="M0 0 C7.7159377 6.52092632 12.52161425 14.59580926 13.9375 24.625 C14.36549495 32.64990528 11.07308802 39.63931922 6.1796875 45.859375 C-1.10589675 53.7053888 -9.60513606 57.1342694 -20.0625 58.625 C-18.05441729 62.95435264 -15.39414708 66.49450444 -11 68.625 C-9.0625 69.625 -9.0625 69.625 -7.125 72.0625 C-4.97140062 74.73818408 -2.97665751 75.8922577 -0.0625 77.625 C0.2675 78.615 0.5975 79.605 0.9375 80.625 C2.46948545 82.14387477 2.46948545 82.14387477 4.3125 83.5625 C6.91953001 85.71985749 9.16145533 87.69974995 10.9375 90.625 C10.9375 91.285 10.9375 91.945 10.9375 92.625 C11.5975 92.625 12.2575 92.625 12.9375 92.625 C15.9375 98.375 15.9375 98.375 15.9375 100.625 C16.5975 100.625 17.2575 100.625 17.9375 100.625 C18.75888131 106.75276536 18.30365837 110.83104236 14.75 116 C7.76034947 124.90728825 -0.95551751 129.21751312 -12.125 130.875 C-13.20910156 131.00390625 -14.29320312 131.1328125 -15.41015625 131.265625 C-18.03280258 131.47553772 -18.03280258 131.47553772 -20.0625 132.625 C-24.43249067 132.87117918 -28.81136793 132.81021601 -33.1875 132.8125 C-34.39921875 132.82474609 -35.6109375 132.83699219 -36.859375 132.84960938 C-43.31825222 132.8601631 -48.88502978 132.51001091 -55.0625 130.625 C-56.58050818 130.31896955 -58.10107145 130.02503683 -59.625 129.75 C-80.77863734 125.54514854 -102.63255307 118.61175314 -116.9375 101.4375 C-121.97325566 93.85843341 -121.3721135 83.36298114 -121.0625 74.625 C-117.30440093 75.87769969 -117.04753025 76.97667447 -115.1875 80.375 C-112.83915156 84.48460977 -110.48254356 87.40613547 -107.0625 90.625 C-107.0625 91.285 -107.0625 91.945 -107.0625 92.625 C-106.4025 92.625 -105.7425 92.625 -105.0625 92.625 C-105.0625 93.285 -105.0625 93.945 -105.0625 94.625 C-104.19625 94.99625 -104.19625 94.99625 -103.3125 95.375 C-101.0625 96.625 -101.0625 96.625 -99.2890625 98.4296875 C-91.02444271 106.57831262 -80.80888464 111.59816566 -70.0625 115.625 C-68.61230469 116.24568359 -68.61230469 116.24568359 -67.1328125 116.87890625 C-59.7655647 119.68315044 -52.76683344 120.03525523 -44.9375 120.125 C-43.93605957 120.14353027 -42.93461914 120.16206055 -41.90283203 120.18115234 C-34.56722618 120.11971107 -28.807985 118.38211392 -22.0625 115.625 C-20.886875 115.295 -19.71125 114.965 -18.5 114.625 C-15.55444328 113.41656648 -15.25560226 112.47009001 -14.0625 109.625 C-13.0725 109.295 -12.0825 108.965 -11.0625 108.625 C-10.48700628 106.51586974 -10.48700628 106.51586974 -10.0625 103.625 C-9.959375 102.99335938 -9.85625 102.36171875 -9.75 101.7109375 C-9.09500227 94.20575514 -12.66764906 88.49896905 -17.0625 82.625 C-18.69185241 81.24631719 -20.35850467 79.91028419 -22.0625 78.625 C-22.70316406 77.96628906 -23.34382813 77.30757813 -24.00390625 76.62890625 C-32.19750925 68.65297012 -43.72994609 63.53398016 -53.86499023 58.51928711 C-58.72042804 56.06861159 -62.59476639 53.86414213 -66.0625 49.625 C-66.0625 48.965 -66.0625 48.305 -66.0625 47.625 C-67.0525 47.295 -68.0425 46.965 -69.0625 46.625 C-68.7325 44.975 -68.4025 43.325 -68.0625 41.625 C-67.00675781 41.6971875 -65.95101562 41.769375 -64.86328125 41.84375 C-33.24228275 45.02577428 -33.24228275 45.02577428 -5.0625 33.625 C-2.57323435 29.89110152 -2.30583657 26.94879102 -3.0625 22.625 C-7.171498 13.38824416 -14.52054472 8.41682857 -23.0625 3.625 C-24.01125 3.068125 -24.96 2.51125 -25.9375 1.9375 C-34.88150049 -1.81898021 -43.87192374 -2.90495578 -53.5 -2.8125 C-54.5938501 -2.80637695 -55.6877002 -2.80025391 -56.81469727 -2.79394531 C-64.93875083 -2.63667825 -71.55288416 -1.59658076 -79.0625 1.625 C-79.93390625 1.93695313 -80.8053125 2.24890625 -81.703125 2.5703125 C-87.22996405 4.58777829 -92.07866813 7.28723406 -97.03125 10.453125 C-99.0625 11.625 -99.0625 11.625 -101.0625 11.625 C-101.0625 12.285 -101.0625 12.945 -101.0625 13.625 C-101.7225 13.625 -102.3825 13.625 -103.0625 13.625 C-103.0625 14.285 -103.0625 14.945 -103.0625 15.625 C-104.85546875 17.140625 -104.85546875 17.140625 -107.25 18.875 C-111.16307082 21.81906117 -114.11706662 24.72942682 -117.0625 28.625 C-117.7225 27.965 -118.3825 27.305 -119.0625 26.625 C-118.4025 25.965 -117.7425 25.305 -117.0625 24.625 C-116.45938385 22.93738142 -115.92399763 21.22485524 -115.4375 19.5 C-115.17710937 18.58992188 -114.91671875 17.67984375 -114.6484375 16.7421875 C-114.35839844 15.69417969 -114.35839844 15.69417969 -114.0625 14.625 C-113.4025 14.625 -112.7425 14.625 -112.0625 14.625 C-111.98 13.92375 -111.8975 13.2225 -111.8125 12.5 C-110.60123511 7.85681793 -108.63837421 4.58589891 -104.5 2.0625 C-103.365625 1.588125 -102.23125 1.11375 -101.0625 0.625 C-100.29035156 0.25761719 -99.51820313 -0.10976562 -98.72265625 -0.48828125 C-67.43020564 -15.33036869 -29.63265713 -21.28899087 0 0 Z " fill="#38CD9A" transform="translate(313.0625,191.375)"/>
<path d="M0 0 C6.90240198 1.92625171 12.2267106 5.82074558 16 12 C16.87928885 14.51108536 17.57225656 17.03635544 18.26171875 19.60546875 C19.99586028 25.22995954 23.80950865 29.04231373 28 33 C26.37750059 33.83819158 24.75191503 34.6704116 23.125 35.5 C22.22007812 35.9640625 21.31515625 36.428125 20.3828125 36.90625 C18 38 18 38 16 38 C16 38.66 16 39.32 16 40 C14.88625 40.58265625 13.7725 41.1653125 12.625 41.765625 C-1.51145577 49.30486013 -13.8995415 58.43148206 -26.1796875 68.671875 C-28 70 -28 70 -30 70 C-30 70.66 -30 71.32 -30 72 C-31.57421875 73.55078125 -31.57421875 73.55078125 -33.6875 75.3125 C-38.05660509 79.03546983 -42.08687706 82.83265517 -45.6875 87.3125 C-46.450625 88.199375 -47.21375 89.08625 -48 90 C-48.66 90 -49.32 90 -50 90 C-50.25394531 90.56460938 -50.50789063 91.12921875 -50.76953125 91.7109375 C-52.16032303 94.29825174 -53.81299273 96.36380655 -55.6875 98.625 C-59.08004038 102.80137643 -62.23690659 107.06885142 -65.28125 111.50390625 C-66.42899298 113.17074208 -67.59587574 114.82455612 -68.78125 116.46484375 C-72.48736652 121.60951865 -75.68909601 126.84415168 -78.640625 132.45703125 C-79.58252752 134.21903856 -80.57627441 135.95392997 -81.609375 137.6640625 C-83.06979654 139.97184249 -83.06979654 139.97184249 -84 142.5625 C-85 145 -85 145 -86.41015625 146.765625 C-88.32281093 149.45368023 -89.3086222 152.08956321 -90.4375 155.1875 C-91.8800398 159.07326036 -93.35602832 162.8769489 -95.125 166.625 C-97.07346311 170.85976457 -98.20700202 175.18928491 -99.2890625 179.71484375 C-100 182 -100 182 -102 184 C-102.54766874 186.02436717 -103.01568118 188.07071853 -103.4375 190.125 C-104.24010144 193.82341968 -105.00652044 197.3329272 -106.5 200.8125 C-108.41176736 205.46680275 -109.09876859 210.42690479 -109.91015625 215.36645508 C-110.51718926 218.94096549 -111.32649856 221.80450754 -113 225 C-113.44811137 227.35564596 -113.44811137 227.35564596 -113.625 229.75 C-113.73714844 230.94882812 -113.73714844 230.94882812 -113.8515625 232.171875 C-113.90054688 232.77515625 -113.94953125 233.3784375 -114 234 C-114.66 234 -115.32 234 -116 234 C-116.35459823 220.91926544 -115.78368738 208.51547098 -113.47070312 195.63134766 C-112.96477474 192.80308201 -112.48955027 189.97051306 -112.015625 187.13671875 C-111.67868755 185.17420307 -111.34017989 183.21195624 -111 181.25 C-110.76941895 179.89273804 -110.76941895 179.89273804 -110.53417969 178.50805664 C-109.66909112 173.70753152 -108.5116975 169.31964105 -106.69628906 164.79248047 C-105.70042659 162.22879805 -105.05528639 159.60023712 -104.375 156.9375 C-102.49936543 150.23156327 -100.10246461 143.793951 -97.5625 137.3125 C-97.19108887 136.3630249 -96.81967773 135.4135498 -96.43701172 134.43530273 C-92.64599817 124.88839084 -88.45760165 115.56599531 -83.625 106.5 C-83.23924805 105.77441895 -82.85349609 105.04883789 -82.45605469 104.30126953 C-77.87886519 95.78754588 -72.64264293 87.83700407 -67 80 C-65.40778574 77.42796157 -63.90656728 74.83182111 -62.4375 72.1875 C-61.963125 71.465625 -61.48875 70.74375 -61 70 C-60.34 70 -59.68 70 -59 70 C-59 69.01 -59 68.02 -59 67 C-58.34 67 -57.68 67 -57 67 C-56.7215625 66.42765625 -56.443125 65.8553125 -56.15625 65.265625 C-55.01726208 63.03382434 -53.80063617 60.89129126 -52.5 58.75 C-52.0771875 58.04359375 -51.654375 57.3371875 -51.21875 56.609375 C-50.61546875 55.81273438 -50.61546875 55.81273438 -50 55 C-49.34 55 -48.68 55 -48 55 C-47.63841797 53.91332031 -47.63841797 53.91332031 -47.26953125 52.8046875 C-45.82743262 49.61875884 -44.09191391 47.65468589 -41.6875 45.125 C-38.91754872 42.15019702 -36.34600343 39.23872362 -34.0625 35.875 C-33.381875 34.92625 -32.70125 33.9775 -32 33 C-31.34 33 -30.68 33 -30 33 C-30 32.34 -30 31.68 -30 31 C-28.38025441 29.28769752 -26.7041054 27.62836738 -25 26 C-22.41425404 23.47732101 -20.03193948 21.04106505 -17.8125 18.1875 C-17.214375 17.465625 -16.61625 16.74375 -16 16 C-15.34 16 -14.68 16 -14 16 C-13.67 15.01 -13.34 14.02 -13 13 C-12.34 13 -11.68 13 -11 13 C-11 12.34 -11 11.68 -11 11 C-10.34 11 -9.68 11 -9 11 C-8.773125 10.443125 -8.54625 9.88625 -8.3125 9.3125 C-6.62449964 6.33840412 -4.53323483 4.27991135 -2 2 C-1.34 2 -0.68 2 0 2 C0 1.34 0 0.68 0 0 Z " fill="#CE9832" transform="translate(288,9)"/>
<path d="M0 0 C0.99 0.495 0.99 0.495 2 1 C4.04237602 9.16950406 2.96500818 17.74573363 2 26 C1.34 26 0.68 26 0 26 C-0.08765625 26.58910156 -0.1753125 27.17820312 -0.265625 27.78515625 C-1.19732192 30.59511452 -2.46788292 31.5800626 -4.75 33.4375 C-7.13168513 35.41173635 -9.2335034 37.25874701 -11.3125 39.5625 C-19.27051459 46.78023416 -30.1043726 50.2173711 -40 54 C-40.75152344 54.309375 -41.50304687 54.61875 -42.27734375 54.9375 C-51.74684349 58.78135613 -61.84561839 60.4098656 -72 61 C-71.67 60.34 -71.34 59.68 -71 59 C-68.36 59 -65.72 59 -63 59 C-62.67 57.68 -62.34 56.36 -62 55 C-62.66 54.67 -63.32 54.34 -64 54 C-63.34 53.34 -62.68 52.68 -62 52 C-64.46120841 50.76939579 -66.25776866 50.7942277 -69.0078125 50.68359375 C-70.48701172 50.62075195 -70.48701172 50.62075195 -71.99609375 50.55664062 C-73.02863281 50.51732422 -74.06117187 50.47800781 -75.125 50.4375 C-76.16527344 50.39431641 -77.20554687 50.35113281 -78.27734375 50.30664062 C-80.85142528 50.2003712 -83.42560508 50.09833417 -86 50 C-86 49.67 -86 49.34 -86 49 C-85.29617187 48.99589111 -84.59234375 48.99178223 -83.8671875 48.98754883 C-69.79221987 48.84399702 -57.10139473 48.47935984 -44 43 C-42.86884766 42.55333984 -42.86884766 42.55333984 -41.71484375 42.09765625 C-36.52978222 39.78726949 -31.97493596 36.30795291 -27.38989258 32.99707031 C-23.20538651 30 -23.20538651 30 -21 30 C-21 29.34 -21 28.68 -21 28 C-20.34 28 -19.68 28 -19 28 C-18.62875 27.15115234 -18.62875 27.15115234 -18.25 26.28515625 C-16.79764463 23.63006909 -15.04815279 21.66260716 -13 19.4375 C-10.76639308 17.00270422 -8.83774888 14.75662332 -7 12 C-6.34 12 -5.68 12 -5 12 C-4.855625 11.401875 -4.71125 10.80375 -4.5625 10.1875 C-4.1127561 8.43849596 -3.57107659 6.71322977 -3 5 C-2.34 5 -1.68 5 -1 5 C-0.67 3.35 -0.34 1.7 0 0 Z " fill="#9D1515" transform="translate(152,231)"/>
<path d="M0 0 C2.52284073 0.25743273 5.04238144 0.53051317 7.5625 0.8125 C8.61920898 0.91788086 8.61920898 0.91788086 9.69726562 1.02539062 C14.60223145 1.59047885 18.47640816 2.9218766 23 5 C25.09419849 5.67745904 27.19863968 6.32413829 29.3125 6.9375 C46.75165811 12.24157574 46.75165811 12.24157574 50 18 C50 18.99 50 19.98 50 21 C50.66 21 51.32 21 52 21 C52.25394531 21.51949219 52.50789063 22.03898437 52.76953125 22.57421875 C54.33132438 25.73875089 55.88376638 28.81319598 57.75 31.8125 C59 34 59 34 59 37 C57.0625 36.1875 57.0625 36.1875 55 35 C54.67 34.01 54.34 33.02 54 32 C52.69301153 31.28305972 51.35051961 30.63112518 50 30 C48.85877678 29.26953374 47.72967323 28.51998261 46.609375 27.7578125 C45.98160156 27.33113281 45.35382813 26.90445313 44.70703125 26.46484375 C43.4166225 25.58139026 42.12752679 24.6960154 40.83984375 23.80859375 C33.95882343 19.14183251 26.83363124 15.74749488 19 13 C17.989375 12.62875 16.97875 12.2575 15.9375 11.875 C9.29692723 9.89695705 2.43924321 9.7395024 -4.4375 9.4375 C-5.35982422 9.39431641 -6.28214844 9.35113281 -7.23242188 9.30664062 C-9.48816163 9.20145069 -11.74399499 9.09930893 -14 9 C-14 8.67 -14 8.34 -14 8 C-8.06 7.67 -2.12 7.34 4 7 C2.68 6.34 1.36 5.68 0 5 C0.66 4.34 1.32 3.68 2 3 C1.34 2.67 0.68 2.34 0 2 C0 1.34 0 0.68 0 0 Z " fill="#9C1213" transform="translate(88,148)"/>
<path d="M0 0 C-1.65 0.33 -3.3 0.66 -5 1 C-5 1.66 -5 2.32 -5 3 C-4.01 3 -3.02 3 -2 3 C-2 3.66 -2 4.32 -2 5 C1.04213267 6.52106634 4.28047572 6.37429338 7.625 6.5625 C8.33140625 6.60568359 9.0378125 6.64886719 9.765625 6.69335938 C11.51018537 6.79944751 13.25506697 6.90022889 15 7 C15 7.33 15 7.66 15 8 C13.16888672 8.03867188 13.16888672 8.03867188 11.30078125 8.078125 C1.25553711 8.38612322 -7.53060597 9.35493189 -17 13 C-17.87914062 13.31066406 -18.75828125 13.62132812 -19.6640625 13.94140625 C-25.17418149 15.97997968 -30.02202572 18.66597847 -34.96875 21.828125 C-37 23 -37 23 -39 23 C-39 23.66 -39 24.32 -39 25 C-39.66 25 -40.32 25 -41 25 C-41 25.66 -41 26.32 -41 27 C-42.79296875 28.515625 -42.79296875 28.515625 -45.1875 30.25 C-49.10057082 33.19406117 -52.05456662 36.10442682 -55 40 C-55.66 39.34 -56.32 38.68 -57 38 C-56.34 37.34 -55.68 36.68 -55 36 C-54.39688385 34.31238142 -53.86149763 32.59985524 -53.375 30.875 C-52.98441406 29.50988281 -52.98441406 29.50988281 -52.5859375 28.1171875 C-52.29589844 27.06917969 -52.29589844 27.06917969 -52 26 C-51.34 26 -50.68 26 -50 26 C-49.9175 25.29875 -49.835 24.5975 -49.75 23.875 C-48.53873511 19.23181793 -46.57587421 15.96089891 -42.4375 13.4375 C-41.303125 12.963125 -40.16875 12.48875 -39 12 C-38.22785156 11.63261719 -37.45570313 11.26523438 -36.66015625 10.88671875 C-6.6727581 -3.33637905 -6.6727581 -3.33637905 0 0 Z " fill="#33CD99" transform="translate(251,180)"/>
<path d="M0 0 C0.66 0.33 1.32 0.66 2 1 C4.04237602 9.16950406 2.96500818 17.74573363 2 26 C1.34 26 0.68 26 0 26 C-0.08765625 26.58910156 -0.1753125 27.17820312 -0.265625 27.78515625 C-1.19732192 30.59511452 -2.46788292 31.5800626 -4.75 33.4375 C-7.24972174 35.5131618 -9.49529593 37.51780938 -11.75 39.875 C-13.94996549 41.95274519 -15.04092976 42.67121442 -18 43 C-18 42.34 -18 41.68 -18 41 C-17.34 41 -16.68 41 -16 41 C-16 40.34 -16 39.68 -16 39 C-15.34 39 -14.68 39 -14 39 C-14.99 37.02 -15.98 35.04 -17 33 C-17.598125 33.185625 -18.19625 33.37125 -18.8125 33.5625 C-21 34 -21 34 -24 33 C-24.66 33.99 -25.32 34.98 -26 36 C-27.32 35.67 -28.64 35.34 -30 35 C-28.87926138 34.16094435 -27.75325453 33.32892169 -26.625 32.5 C-25.99851562 32.0359375 -25.37203125 31.571875 -24.7265625 31.09375 C-23 30 -23 30 -21 30 C-21 29.34 -21 28.68 -21 28 C-20.34 28 -19.68 28 -19 28 C-18.7525 27.43410156 -18.505 26.86820312 -18.25 26.28515625 C-16.79764463 23.63006909 -15.04815279 21.66260716 -13 19.4375 C-10.76639308 17.00270422 -8.83774888 14.75662332 -7 12 C-6.34 12 -5.68 12 -5 12 C-4.7834375 11.1028125 -4.7834375 11.1028125 -4.5625 10.1875 C-4.1127561 8.43849596 -3.57107659 6.71322977 -3 5 C-2.34 5 -1.68 5 -1 5 C-0.67 3.35 -0.34 1.7 0 0 Z " fill="#990A0B" transform="translate(152,231)"/>
<path d="M0 0 C1.485 1.485 1.485 1.485 3 3 C2.67 3.99 2.34 4.98 2 6 C1.34 6 0.68 6 0 6 C-0.020625 7.03125 -0.04125 8.0625 -0.0625 9.125 C-1.29674934 14.22656395 -3.79022191 16.10273933 -8 19 C-10.00032373 20.00016187 -11.83125748 20.49396008 -14 21 C-14 22.32 -14 23.64 -14 25 C-13.01 25.33 -12.02 25.66 -11 26 C-11.165 26.5775 -11.33 27.155 -11.5 27.75 C-12.14462031 30.26664369 -12.14462031 30.26664369 -12 34 C-12.66 33.67 -13.32 33.34 -14 33 C-14.33 33.99 -14.66 34.98 -15 36 C-15.99 36.66 -16.98 37.32 -18 38 C-19.06246527 39.96752828 -20.07137808 41.96587579 -21 44 C-21.268125 43.360625 -21.53625 42.72125 -21.8125 42.0625 C-22.88667752 39.66868314 -22.88667752 39.66868314 -26 39 C-26.74957157 42.47147842 -26.74957157 42.47147842 -27 46 C-25.70766393 47.37310707 -24.37562854 48.71034824 -23 50 C-23.515625 49.401875 -24.03125 48.80375 -24.5625 48.1875 C-25.036875 47.465625 -25.51125 46.74375 -26 46 C-25.67 45.01 -25.34 44.02 -25 43 C-23.5 44.375 -23.5 44.375 -22 46 C-22 46.66 -22 47.32 -22 48 C-19.66834966 48.33498301 -19.66834966 48.33498301 -17 48 C-14.81222534 46.0624994 -14.81222534 46.0624994 -13 44 C-10.84365964 44 -9.07553648 44.4465236 -7 45 C-7.42410156 45.53367188 -7.84820312 46.06734375 -8.28515625 46.6171875 C-12.73803224 52.27380799 -16.91023665 58.07751708 -21 64 C-22.2697812 65.81323725 -23.54059139 67.6257544 -24.8125 69.4375 C-26.56973827 71.94267035 -28.30243949 74.45365923 -30 77 C-29.67 73.37 -29.34 69.74 -29 66 C-27.35 66 -25.7 66 -24 66 C-24.33 64.68 -24.66 63.36 -25 62 C-23.02 61.505 -23.02 61.505 -21 61 C-21 60.01 -21 59.02 -21 58 C-20.34 58 -19.68 58 -19 58 C-18.67 56.68 -18.34 55.36 -18 54 C-19.98 54.495 -19.98 54.495 -22 55 C-22 54.01 -22 53.02 -22 52 C-21.34 52 -20.68 52 -20 52 C-20 51.34 -20 50.68 -20 50 C-23.72614153 51.11854586 -23.72614153 51.11854586 -26 54 C-26.66 54 -27.32 54 -28 54 C-28.33 51.69 -28.66 49.38 -29 47 C-29.66 47 -30.32 47 -31 47 C-29.70188031 42.43304006 -27.93811246 39.20203549 -25.0625 35.4375 C-21.82452765 31.17063925 -19.03710795 26.86679431 -16.4375 22.1875 C-15.963125 21.465625 -15.48875 20.74375 -15 20 C-14.34 20 -13.68 20 -13 20 C-13 19.01 -13 18.02 -13 17 C-12.34 17 -11.68 17 -11 17 C-10.7215625 16.42765625 -10.443125 15.8553125 -10.15625 15.265625 C-9.01726208 13.03382434 -7.80063617 10.89129126 -6.5 8.75 C-6.0771875 8.04359375 -5.654375 7.3371875 -5.21875 6.609375 C-4.61546875 5.81273438 -4.61546875 5.81273438 -4 5 C-3.34 5 -2.68 5 -2 5 C-1.34 3.35 -0.68 1.7 0 0 Z " fill="#CF9936" transform="translate(242,59)"/>
<path d="M0 0 C1.04478516 -0.01224609 2.08957031 -0.02449219 3.16601562 -0.03710938 C4.66745117 -0.04000977 4.66745117 -0.04000977 6.19921875 -0.04296875 C7.10889404 -0.04707764 8.01856934 -0.05118652 8.95581055 -0.05541992 C11.3125 0.1875 11.3125 0.1875 14.3125 2.1875 C16.3617094 2.63889459 16.3617094 2.63889459 18.5 2.8125 C19.758125 2.93625 21.01625 3.06 22.3125 3.1875 C22.3125 4.1775 22.3125 5.1675 22.3125 6.1875 C22.9725 6.5175 23.6325 6.8475 24.3125 7.1875 C21.30386779 10.6711794 18.16616409 11.97195766 13.625 12.5 C12.861875 12.396875 12.09875 12.29375 11.3125 12.1875 C10.6525 11.1975 9.9925 10.2075 9.3125 9.1875 C8.9825 9.5175 8.6525 9.8475 8.3125 10.1875 C6.01923781 10.20433857 3.72539688 10.14991325 1.43359375 10.06640625 C0.40360008 10.03098976 0.40360008 10.03098976 -0.64720154 9.99485779 C-2.84833628 9.9180582 -5.04913344 9.83410497 -7.25 9.75 C-8.73891557 9.69679557 -10.22784779 9.64405507 -11.71679688 9.59179688 C-15.37390673 9.46242148 -19.03074672 9.32662762 -22.6875 9.1875 C-21.6975 8.5275 -20.7075 7.8675 -19.6875 7.1875 C-19.6875 6.5275 -19.6875 5.8675 -19.6875 5.1875 C-20.6775 5.1875 -21.6675 5.1875 -22.6875 5.1875 C-22.6875 4.5275 -22.6875 3.8675 -22.6875 3.1875 C-15.26963941 -0.08508555 -7.97340377 0.00497405 0 0 Z " fill="#30CB96" transform="translate(268.6875,177.8125)"/>
<path d="M0 0 C0.33 0.99 0.66 1.98 1 3 C2.546875 2.4121875 2.546875 2.4121875 4.125 1.8125 C8.67060255 0.85938979 10.1637565 1.56726022 14 4 C14.66 2.68 15.32 1.36 16 0 C16.99 0.99 17.98 1.98 19 3 C18.48050781 3.36351562 17.96101563 3.72703125 17.42578125 4.1015625 C13.93849118 6.61550543 10.8074854 8.99168509 8.125 12.375 C7.42375 13.24125 6.7225 14.1075 6 15 C5.34 15 4.68 15 4 15 C3.67 16.32 3.34 17.64 3 19 C2.34 19 1.68 19 1 19 C0.34 21.97 -0.32 24.94 -1 28 C-1.33 28 -1.66 28 -2 28 C-1.67 23.71 -1.34 19.42 -1 15 C-2.98 15.66 -4.96 16.32 -7 17 C-7.33 16.34 -7.66 15.68 -8 15 C-11.02934491 14.34227572 -11.02934491 14.34227572 -14 14 C-12.85799436 10.57398307 -11.79691945 9.75478349 -9.0625 7.5 C-6.49024808 5.37123979 -4.87739237 3.81608855 -3 1 C-2.01 0.67 -1.02 0.34 0 0 Z " fill="#990707" transform="translate(48,228)"/>
<path d="M0 0 C0 0.99 0 1.98 0 3 C-1.65 3 -3.3 3 -5 3 C-4.67 3.66 -4.34 4.32 -4 5 C-2.02 5 -0.04 5 2 5 C2 5.66 2 6.32 2 7 C2.66 7.66 3.32 8.32 4 9 C2.54462432 9.83848804 1.08559627 10.67063934 -0.375 11.5 C-1.18710938 11.9640625 -1.99921875 12.428125 -2.8359375 12.90625 C-5 14 -5 14 -7 14 C-7 14.66 -7 15.32 -7 16 C-7.66 16 -8.32 16 -9 16 C-9 16.66 -9 17.32 -9 18 C-10.79296875 19.515625 -10.79296875 19.515625 -13.1875 21.25 C-17.10057082 24.19406117 -20.05456662 27.10442682 -23 31 C-23.66 30.34 -24.32 29.68 -25 29 C-24.34 28.34 -23.68 27.68 -23 27 C-22.39688385 25.31238142 -21.86149763 23.59985524 -21.375 21.875 C-20.98441406 20.50988281 -20.98441406 20.50988281 -20.5859375 19.1171875 C-20.29589844 18.06917969 -20.29589844 18.06917969 -20 17 C-19.34 17 -18.68 17 -18 17 C-17.9175 16.29875 -17.835 15.5975 -17.75 14.875 C-16.49772094 10.07459696 -14.46867286 6.88120371 -10.1875 4.3125 C-9.135625 3.879375 -8.08375 3.44625 -7 3 C-5.70791925 2.43845183 -4.41625047 1.87595475 -3.125 1.3125 C-2.09375 0.879375 -1.0625 0.44625 0 0 Z " fill="#40CF9E" transform="translate(219,189)"/>
<path d="M0 0 C3.52540506 2.21782655 4.55929828 3.78357354 5.5 7.8125 C7.37327683 14.74160999 10.80484763 19.09346721 16 24 C14.37750059 24.83819158 12.75191503 25.6704116 11.125 26.5 C10.22007812 26.9640625 9.31515625 27.428125 8.3828125 27.90625 C6 29 6 29 4 29 C4 29.66 4 30.32 4 31 C-0.62 33.31 -5.24 35.62 -10 38 C-10.495 36.515 -10.495 36.515 -11 35 C-10.01 35 -9.02 35 -8 35 C-8 33.35 -8 31.7 -8 30 C-7.01 30.33 -6.02 30.66 -5 31 C-4.34 31 -3.68 31 -3 31 C-3.33 29.35 -3.66 27.7 -4 26 C-3.01 25.34 -2.02 24.68 -1 24 C-1 22.68 -1 21.36 -1 20 C-0.01 20 0.98 20 2 20 C2.33 21.32 2.66 22.64 3 24 C4.98 23.01 6.96 22.02 9 21 C7.68 20.34 6.36 19.68 5 19 C5.33 18.34 5.66 17.68 6 17 C5.34 16.67 4.68 16.34 4 16 C4 16.66 4 17.32 4 18 C3.01 17.67 2.02 17.34 1 17 C2.32 16.34 3.64 15.68 5 15 C4.34 13.35 3.68 11.7 3 10 C1.35 10.33 -0.3 10.66 -2 11 C-2.33 10.34 -2.66 9.68 -3 9 C-2.67 8.34 -2.34 7.68 -2 7 C-0.35 7.33 1.3 7.66 3 8 C2.505 7.05125 2.01 6.1025 1.5 5.125 C0 2 0 2 0 0 Z M-1 27 C-0.67 27.99 -0.34 28.98 0 30 C0 29.01 0 28.02 0 27 C-0.33 27 -0.66 27 -1 27 Z " fill="#D19E3B" transform="translate(300,18)"/>
<path d="M0 0 C0.598125 0.185625 1.19625 0.37125 1.8125 0.5625 C4.16408762 1.22093687 4.16408762 1.22093687 7 0 C10 4.75 10 4.75 10 7 C9.34 7 8.68 7 8 7 C8 7.66 8 8.32 8 9 C7.34 9 6.68 9 6 9 C6 9.99 6 10.98 6 12 C-1.28571429 16.57142857 -1.28571429 16.57142857 -6 16 C-6 15.34 -6 14.68 -6 14 C-5.34 14 -4.68 14 -4 14 C-4 13.34 -4 12.68 -4 12 C-8.455 12.495 -8.455 12.495 -13 13 C-13 13.66 -13 14.32 -13 15 C-14.65 14.67 -16.3 14.34 -18 14 C-17.67 13.34 -17.34 12.68 -17 12 C-16.34 12 -15.68 12 -15 12 C-15 11.34 -15 10.68 -15 10 C-14.2575 9.938125 -13.515 9.87625 -12.75 9.8125 C-9.17108348 8.75509285 -8.24473375 6.89643064 -6 4 C-3.875 3.375 -3.875 3.375 -2 3 C-1.34 2.01 -0.68 1.02 0 0 Z " fill="#990607" transform="translate(128,263)"/>
<path d="M0 0 C0.33 0 0.66 0 1 0 C1.33 3.3 1.66 6.6 2 10 C2.66 10 3.32 10 4 10 C4 8.68 4 7.36 4 6 C4.66 6 5.32 6 6 6 C6.33 5.01 6.66 4.02 7 3 C7.37362582 6.98534207 6.34478345 9.69719492 4.859375 13.34765625 C3.48388755 17.59291071 2.81209361 21.96685063 2.09057617 26.36450195 C1.48276013 29.93945966 0.6738141 32.80391052 -1 36 C-1.44811137 38.35564596 -1.44811137 38.35564596 -1.625 40.75 C-1.69976562 41.54921875 -1.77453125 42.3484375 -1.8515625 43.171875 C-1.90054688 43.77515625 -1.94953125 44.3784375 -2 45 C-2.66 45 -3.32 45 -4 45 C-4.41314516 29.75953409 -3.84282431 14.83475198 0 0 Z " fill="#D8AB55" transform="translate(176,198)"/>
<path d="M0 0 C6.93 0 13.86 0 21 0 C21 0.66 21 1.32 21 2 C21.99 2.33 22.98 2.66 24 3 C23.34 3.66 22.68 4.32 22 5 C23.65 5.66 25.3 6.32 27 7 C27 7.33 27 7.66 27 8 C17.43 8.33 7.86 8.66 -2 9 C-2 8.01 -2 7.02 -2 6 C-1.360625 5.71125 -0.72125 5.4225 -0.0625 5.125 C2.15206079 4.17176549 2.15206079 4.17176549 3 2 C2.01 1.67 1.02 1.34 0 1 C0 0.67 0 0.34 0 0 Z " fill="#940202" transform="translate(67,148)"/>
<path d="M0 0 C1.125 3.75 1.125 3.75 0 6 C0.66 6.66 1.32 7.32 2 8 C1.625 10.125 1.625 10.125 1 12 C-0.32 10.68 -1.64 9.36 -3 8 C-2.79503906 8.60328125 -2.59007812 9.2065625 -2.37890625 9.828125 C-2.10949219 10.62734375 -1.84007812 11.4265625 -1.5625 12.25 C-1.16224609 13.43335937 -1.16224609 13.43335937 -0.75390625 14.640625 C-0.50511719 15.41921875 -0.25632813 16.1978125 0 17 C0.23847656 17.71671875 0.47695312 18.4334375 0.72265625 19.171875 C0.81417969 19.77515625 0.90570313 20.3784375 1 21 C0.34 21.66 -0.32 22.32 -1 23 C-2.32 23 -3.64 23 -5 23 C-5 23.99 -5 24.98 -5 26 C-6.33333333 25.33333333 -7.66666667 24.66666667 -9 24 C-9.33 24.66 -9.66 25.32 -10 26 C-10.66 26 -11.32 26 -12 26 C-12.103125 26.721875 -12.20625 27.44375 -12.3125 28.1875 C-13.05986932 31.24491993 -14.28045189 33.38329635 -16 36 C-16.33 35.34 -16.66 34.68 -17 34 C-16.109375 31.64453125 -16.109375 31.64453125 -14.75 28.8125 C-13.30249539 25.76848294 -11.89006827 22.73792517 -10.5859375 19.62890625 C-8.86056966 15.68095865 -6.91930107 11.91407084 -4.875 8.125 C-4.51535156 7.44953125 -4.15570313 6.7740625 -3.78515625 6.078125 C-1.13484172 1.13484172 -1.13484172 1.13484172 0 0 Z " fill="#CD982F" transform="translate(210,106)"/>
<path d="M0 0 C0.66 0 1.32 0 2 0 C2.79953138 3.28696233 3.09658936 4.71023192 2 8 C2.99 8.33 3.98 8.66 5 9 C5 9.66 5 10.32 5 11 C3.35 10.67 1.7 10.34 0 10 C0 10.99 0 11.98 0 13 C0.99 13 1.98 13 3 13 C3.29341888 18.67276511 3.00559652 21.99067246 0 27 C-0.66 27 -1.32 27 -2 27 C-2 28.32 -2 29.64 -2 31 C-2.66 31 -3.32 31 -4 31 C-5.50162548 27.99674904 -5.14368999 24.91443758 -5.125 21.625 C-5.12886719 20.95210937 -5.13273438 20.27921875 -5.13671875 19.5859375 C-5.12353196 12.88705049 -5.12353196 12.88705049 -4 10 C-3.34 9.67 -2.68 9.34 -2 9 C-1.31270746 6.88153715 -1.31270746 6.88153715 -0.875 4.4375 C-0.70742187 3.61121094 -0.53984375 2.78492188 -0.3671875 1.93359375 C-0.24601563 1.29550781 -0.12484375 0.65742188 0 0 Z " fill="#D09C3A" transform="translate(182,177)"/>
<path d="M0 0 C8.91 0 17.82 0 27 0 C27 0.33 27 0.66 27 1 C17.1 1.495 17.1 1.495 7 2 C7.66 2.33 8.32 2.66 9 3 C8 5 7 7 6 9 C8.97 9.495 8.97 9.495 12 10 C12 10.33 12 10.66 12 11 C11.45472656 11.10957031 10.90945312 11.21914062 10.34765625 11.33203125 C5.45039075 12.36171271 0.76417906 13.65667293 -3.95703125 15.31640625 C-5.95486489 15.98489743 -7.95040034 16.5163866 -10 17 C-10 16.01 -10 15.02 -10 14 C-7.29120665 12.64560332 -4.99066732 12.93498549 -2 13 C-2 12.34 -2 11.68 -2 11 C-1.34 10.34 -0.68 9.68 0 9 C-1.32 9.33 -2.64 9.66 -4 10 C-4.33 9.01 -4.66 8.02 -5 7 C-4.34 7 -3.68 7 -3 7 C-3 5.68 -3 4.36 -3 3 C-2.01 3 -1.02 3 0 3 C0 2.01 0 1.02 0 0 Z " fill="#A01919" transform="translate(61,147)"/>
<path d="M0 0 C1.32 0.99 2.64 1.98 4 3 C3.67 5.64 3.34 8.28 3 11 C2.34 11 1.68 11 1 11 C1 12.32 1 13.64 1 15 C0.34 15 -0.32 15 -1 15 C-1 15.99 -1 16.98 -1 18 C-1.928125 17.979375 -2.85625 17.95875 -3.8125 17.9375 C-7.02286011 17.84230396 -7.02286011 17.84230396 -10 19 C-10.33 17.35 -10.66 15.7 -11 14 C-10.01 14 -9.02 14 -8 14 C-7.855625 12.9275 -7.71125 11.855 -7.5625 10.75 C-7.16250558 8.08337051 -6.72408076 5.58600271 -6 3 C-5.34 3 -4.68 3 -4 3 C-4 3.99 -4 4.98 -4 6 C-3.34 6 -2.68 6 -2 6 C-1.855625 5.195625 -1.71125 4.39125 -1.5625 3.5625 C-1 1 -1 1 0 0 Z " fill="#CE972E" transform="translate(197,146)"/>
<path d="M0 0 C2 1.8125 2 1.8125 4 4 C4 4.99 4 5.98 4 7 C4.66 7 5.32 7 6 7 C6.25394531 7.51949219 6.50789063 8.03898438 6.76953125 8.57421875 C8.33132438 11.73875089 9.88376638 14.81319598 11.75 17.8125 C13 20 13 20 13 23 C11.0625 22.1875 11.0625 22.1875 9 21 C8.67 20.01 8.34 19.02 8 18 C6.14418237 16.90904706 6.14418237 16.90904706 4 16 C2.76288053 15.22638796 1.53893901 14.43135554 0.328125 13.6171875 C-0.66767578 12.95009766 -0.66767578 12.95009766 -1.68359375 12.26953125 C-2.36550781 11.80933594 -3.04742187 11.34914062 -3.75 10.875 C-4.44738281 10.40707031 -5.14476562 9.93914062 -5.86328125 9.45703125 C-7.57692526 8.30677705 -9.28865316 7.15366914 -11 6 C-8.11541362 4.55770681 -6.09360585 5.35549878 -3 6 C-2.34 6.33 -1.68 6.66 -1 7 C-0.67 4.69 -0.34 2.38 0 0 Z " fill="#9E1F20" transform="translate(134,162)"/>
<path d="M0 0 C0.66 0 1.32 0 2 0 C2.04898437 0.78246094 2.09796875 1.56492188 2.1484375 2.37109375 C2.22320312 3.38300781 2.29796875 4.39492187 2.375 5.4375 C2.44460937 6.44683594 2.51421875 7.45617187 2.5859375 8.49609375 C2.72257812 9.32238281 2.85921875 10.14867187 3 11 C3.66 11.33 4.32 11.66 5 12 C4.67 13.65 4.34 15.3 4 17 C2.906875 17.103125 1.81375 17.20625 0.6875 17.3125 C-2.85559629 17.97307727 -3.93243723 18.2027092 -6 21 C-7.5 20 -7.5 20 -9 18 C-9.27345479 15.28153765 -9.13491285 12.74322801 -9 10 C-7.35 10 -5.7 10 -4 10 C-3.79503906 9.36191406 -3.59007812 8.72382813 -3.37890625 8.06640625 C-3.10949219 7.24011719 -2.84007812 6.41382813 -2.5625 5.5625 C-2.16224609 4.32693359 -2.16224609 4.32693359 -1.75390625 3.06640625 C-1 1 -1 1 0 0 Z " fill="#960202" transform="translate(27,181)"/>
<path d="M0 0 C7.94362584 0.18954422 13.97149263 2.37884886 21 6 C20.505 6.61875 20.01 7.2375 19.5 7.875 C17.80777227 9.83880904 17.80777227 9.83880904 18 12 C16.35 12.33 14.7 12.66 13 13 C13 12.34 13 11.68 13 11 C13.66 11 14.32 11 15 11 C15 10.34 15 9.68 15 9 C13.35 9 11.7 9 10 9 C9.67 9.99 9.34 10.98 9 12 C8.34 12 7.68 12 7 12 C7 12.66 7 13.32 7 14 C8.32 14 9.64 14 11 14 C11.33 14.99 11.66 15.98 12 17 C7.69178945 15.62254493 3.43321297 14.25057115 -0.6875 12.375 C-3.8493325 11.06254122 -6.61526954 10.41277201 -10 10 C-10 9.67 -10 9.34 -10 9 C-8.35 9 -6.7 9 -5 9 C-4.67 8.01 -4.34 7.02 -4 6 C-3.34 7.32 -2.68 8.64 -2 10 C2.44870215 10.39253254 5.14243493 9.15305957 9 7 C9 6.34 9 5.68 9 5 C9 4.01 9 3.02 9 2 C6.36 2 3.72 2 1 2 C0.67 1.34 0.34 0.68 0 0 Z " fill="#38CC9A" transform="translate(282,179)"/>
<path d="M0 0 C-0.99 0.66 -1.98 1.32 -3 2 C-0.525 3.485 -0.525 3.485 2 5 C1.67 5.66 1.34 6.32 1 7 C2.32 7.66 3.64 8.32 5 9 C-2.99955473 11.02214499 -10.75569133 12.52087184 -19 13 C-18.67 12.34 -18.34 11.68 -18 11 C-15.36 11 -12.72 11 -10 11 C-9.67 9.68 -9.34 8.36 -9 7 C-9.66 6.67 -10.32 6.34 -11 6 C-10.34 5.34 -9.68 4.68 -9 4 C-11.46120841 2.76939579 -13.25776866 2.7942277 -16.0078125 2.68359375 C-16.99394531 2.64169922 -17.98007813 2.59980469 -18.99609375 2.55664062 C-20.54490234 2.49766602 -20.54490234 2.49766602 -22.125 2.4375 C-23.16527344 2.39431641 -24.20554687 2.35113281 -25.27734375 2.30664062 C-27.85142528 2.2003712 -30.42560508 2.09833417 -33 2 C-33 1.67 -33 1.34 -33 1 C-32.22809326 0.97494385 -31.45618652 0.9498877 -30.66088867 0.92407227 C-27.16958819 0.80815993 -23.67856078 0.68541176 -20.1875 0.5625 C-18.97255859 0.52318359 -17.75761719 0.48386719 -16.50585938 0.44335938 C-15.34248047 0.40146484 -14.17910156 0.35957031 -12.98046875 0.31640625 C-11.90692139 0.27974854 -10.83337402 0.24309082 -9.72729492 0.20532227 C-1.36657114 -0.42410829 -1.36657114 -0.42410829 0 0 Z " fill="#A01E1F" transform="translate(99,279)"/>
<path d="M0 0 C0.33 1.32 0.66 2.64 1 4 C1.66 4 2.32 4 3 4 C2.67 7.3 2.34 10.6 2 14 C1.34 14 0.68 14 0 14 C0 13.34 0 12.68 0 12 C-1.65 12.33 -3.3 12.66 -5 13 C-5.28875 13.94875 -5.5775 14.8975 -5.875 15.875 C-7 19 -7 19 -9 21 C-9.33 20.67 -9.66 20.34 -10 20 C-10.66 20.66 -11.32 21.32 -12 22 C-12 21.01 -12 20.02 -12 19 C-12.99 18.67 -13.98 18.34 -15 18 C-13.71802734 16.51886719 -13.71802734 16.51886719 -12.41015625 15.0078125 C-11.2941626 13.71363499 -10.17828309 12.41935905 -9.0625 11.125 C-8.49853516 10.47402344 -7.93457031 9.82304688 -7.35351562 9.15234375 C-6.81533203 8.52714844 -6.27714844 7.90195312 -5.72265625 7.2578125 C-5.22515869 6.6817627 -4.72766113 6.10571289 -4.21508789 5.51220703 C-2.91115852 3.9986699 -2.91115852 3.9986699 -2 2 C-1.34 2 -0.68 2 0 2 C0 1.34 0 0.68 0 0 Z " fill="#D3A346" transform="translate(258,40)"/>
<path d="M0 0 C2.62113708 0 4.50935112 0.31292445 7 1 C6.57589844 1.53367187 6.15179688 2.06734375 5.71484375 2.6171875 C1.26196776 8.27380799 -2.91023665 14.07751708 -7 20 C-8.2697812 21.81323725 -9.54059139 23.6257544 -10.8125 25.4375 C-12.56973827 27.94267035 -14.30243949 30.45365923 -16 33 C-15.67 29.37 -15.34 25.74 -15 22 C-13.35 22 -11.7 22 -10 22 C-10.33 20.68 -10.66 19.36 -11 18 C-9.68 17.67 -8.36 17.34 -7 17 C-7 16.01 -7 15.02 -7 14 C-6.34 14 -5.68 14 -5 14 C-4.855625 13.278125 -4.71125 12.55625 -4.5625 11.8125 C-4.376875 10.884375 -4.19125 9.95625 -4 9 C-3.87625 8.154375 -3.7525 7.30875 -3.625 6.4375 C-2.90887434 3.64460994 -1.99600196 2.07277126 0 0 Z " fill="#CF9E39" transform="translate(228,103)"/>
<path d="M0 0 C0 0.99 0 1.98 0 3 C-1.65 3 -3.3 3 -5 3 C-4.67 3.66 -4.34 4.32 -4 5 C-2.02 5 -0.04 5 2 5 C2 5.66 2 6.32 2 7 C2.66 7.66 3.32 8.32 4 9 C2.54462432 9.83848804 1.08559627 10.67063934 -0.375 11.5 C-1.18710938 11.9640625 -1.99921875 12.428125 -2.8359375 12.90625 C-5 14 -5 14 -7 14 C-7 14.66 -7 15.32 -7 16 C-7.66 16 -8.32 16 -9 16 C-9 16.66 -9 17.32 -9 18 C-11.5 19.625 -11.5 19.625 -14 21 C-14.33 20.01 -14.66 19.02 -15 18 C-14.50628906 17.66226563 -14.01257813 17.32453125 -13.50390625 16.9765625 C-12.86324219 16.53054687 -12.22257813 16.08453125 -11.5625 15.625 C-10.92441406 15.18414062 -10.28632813 14.74328125 -9.62890625 14.2890625 C-7.86259072 13.07839147 -7.86259072 13.07839147 -7 11 C-7.66 11 -8.32 11 -9 11 C-9 10.01 -9 9.02 -9 8 C-9.66 7.67 -10.32 7.34 -11 7 C-11 6.34 -11 5.68 -11 5 C-9.730447 4.35165346 -8.45930294 3.70642185 -7.1875 3.0625 C-6.47980469 2.70285156 -5.77210938 2.34320313 -5.04296875 1.97265625 C-3 1 -3 1 0 0 Z " fill="#42CF9F" transform="translate(219,189)"/>
<path d="M0 0 C0.33 1.32 0.66 2.64 1 4 C1.77085937 3.83242187 2.54171875 3.66484375 3.3359375 3.4921875 C4.84027344 3.18667969 4.84027344 3.18667969 6.375 2.875 C7.37273437 2.66617188 8.37046875 2.45734375 9.3984375 2.2421875 C10.25695312 2.16226563 11.11546875 2.08234375 12 2 C12.66 2.66 13.32 3.32 14 4 C13.57316368 5.27445454 13.13302798 6.54445882 12.6875 7.8125 C12.44386719 8.52019531 12.20023438 9.22789062 11.94921875 9.95703125 C10.93275742 12.14472373 9.79179406 13.40896718 8 15 C8.0928125 13.3603125 8.0928125 13.3603125 8.1875 11.6875 C8.35597914 8.07873917 8.35597914 8.07873917 6.5 6.0625 C6.005 5.711875 5.51 5.36125 5 5 C4.34 6.65 3.68 8.3 3 10 C2.34 10 1.68 10 1 10 C1 9.01 1 8.02 1 7 C0.34 7 -0.32 7 -1 7 C-1.2165625 8.3303125 -1.2165625 8.3303125 -1.4375 9.6875 C-1.91019978 12.47117646 -2.43070185 15.23483757 -3 18 C-3.99 18 -4.98 18 -6 18 C-4 12 -2 6 0 0 Z " fill="#D09C3A" transform="translate(192,142)"/>
<path d="M0 0 C0 0.99 0 1.98 0 3 C1.32 2.67 2.64 2.34 4 2 C4 3.98 4 5.96 4 8 C2.35 8 0.7 8 -1 8 C-1 8.66 -1 9.32 -1 10 C-2.98 10 -4.96 10 -7 10 C-6.67 9.01 -6.34 8.02 -6 7 C-7.65 6.01 -9.3 5.02 -11 4 C-10.67 3.34 -10.34 2.68 -10 2 C-9.01 2 -8.02 2 -7 2 C-7 1.34 -7 0.68 -7 0 C-3.98968256 -0.93423645 -3.13349732 -1.04449911 0 0 Z " fill="#970606" transform="translate(106,277)"/>
<path d="M0 0 C5.28 0.66 10.56 1.32 16 2 C16 2.33 16 2.66 16 3 C14.6078125 3.37125 14.6078125 3.37125 13.1875 3.75 C9.83541675 5.06454245 8.8122197 5.97963384 7 9 C11.455 8.505 11.455 8.505 16 8 C16 8.99 16 9.98 16 11 C16.66 11.33 17.32 11.66 18 12 C16.9790625 11.7834375 16.9790625 11.7834375 15.9375 11.5625 C9.1374772 10.26036797 2.47148384 9.7409183 -4.4375 9.4375 C-5.35982422 9.39431641 -6.28214844 9.35113281 -7.23242188 9.30664062 C-9.48816163 9.20145069 -11.74399499 9.09930893 -14 9 C-14 8.67 -14 8.34 -14 8 C-8.06 7.67 -2.12 7.34 4 7 C2.68 6.34 1.36 5.68 0 5 C0.66 4.34 1.32 3.68 2 3 C1.34 2.67 0.68 2.34 0 2 C0 1.34 0 0.68 0 0 Z " fill="#A62F30" transform="translate(88,148)"/>
<path d="M0 0 C0.66 0.33 1.32 0.66 2 1 C4.04237602 9.16950406 2.96500818 17.74573363 2 26 C1.67 26 1.34 26 1 26 C0.99742187 25.31292969 0.99484375 24.62585938 0.9921875 23.91796875 C0.87380886 21.1597464 0.68550463 18.67734829 0 16 C-2.88679844 13.76113268 -2.88679844 13.76113268 -6 13 C-6 13.99 -6 14.98 -6 16 C-6.99 15.67 -7.98 15.34 -9 15 C-8.34 14.01 -7.68 13.02 -7 12 C-6.34 12 -5.68 12 -5 12 C-4.7834375 11.1028125 -4.7834375 11.1028125 -4.5625 10.1875 C-4.1127561 8.43849596 -3.57107659 6.71322977 -3 5 C-2.34 5 -1.68 5 -1 5 C-0.67 3.35 -0.34 1.7 0 0 Z " fill="#A73B3B" transform="translate(152,231)"/>
<path d="M0 0 C3.52540506 2.21782655 4.55929828 3.78357354 5.5 7.8125 C7.04235865 13.56281541 9.53565239 17.98208715 14 22 C10.85375007 22.26218749 9.38162983 22.24754367 6.6875 20.5 C6.130625 20.005 5.57375 19.51 5 19 C5.33 18.34 5.66 17.68 6 17 C5.34 16.67 4.68 16.34 4 16 C4 16.66 4 17.32 4 18 C3.01 17.67 2.02 17.34 1 17 C2.32 16.34 3.64 15.68 5 15 C4.34 13.35 3.68 11.7 3 10 C1.35 10.33 -0.3 10.66 -2 11 C-2.33 10.34 -2.66 9.68 -3 9 C-2.67 8.34 -2.34 7.68 -2 7 C-0.35 7.33 1.3 7.66 3 8 C2.505 7.05125 2.01 6.1025 1.5 5.125 C0 2 0 2 0 0 Z " fill="#D3A446" transform="translate(300,18)"/>
<path d="M0 0 C0.33 0.66 0.66 1.32 1 2 C1.66 2 2.32 2 3 2 C2.67 3.65 2.34 5.3 2 7 C1.34 7 0.68 7 0 7 C-0.33 8.65 -0.66 10.3 -1 12 C-2.65 12.33 -4.3 12.66 -6 13 C-6.33 12.34 -6.66 11.68 -7 11 C-7.66 10.67 -8.32 10.34 -9 10 C-3.9977221 2.51708428 -3.9977221 2.51708428 0 0 Z " fill="#CF9A36" transform="translate(269,29)"/>
<path d="M0 0 C4.03328547 2.01664273 5.51446675 3.36046918 8 7 C8 7.99 8 8.98 8 10 C7.01 10 6.02 10 5 10 C5 13.3 5 16.6 5 20 C4.34 20 3.68 20 3 20 C3 17.36 3 14.72 3 12 C2.34 12 1.68 12 1 12 C0.67 8.04 0.34 4.08 0 0 Z " fill="#2ECB96" transform="translate(193,270)"/>
<path d="M0 0 C1.32 0 2.64 0 4 0 C5.04005702 3.38018531 5.08004482 6.4780279 5 10 C1.01803543 11.05404945 -1.98195309 10.84098656 -6 10 C-6 9.34 -6 8.68 -6 8 C-5.01 8 -4.02 8 -3 8 C-2.87625 7.38125 -2.7525 6.7625 -2.625 6.125 C-2 4 -2 4 0 2 C0 1.34 0 0.68 0 0 Z " fill="#980203" transform="translate(34,242)"/>
<path d="M0 0 C2.97 0.495 2.97 0.495 6 1 C5.79375 1.61875 5.5875 2.2375 5.375 2.875 C5.25125 3.57625 5.1275 4.2775 5 5 C5.66 5.66 6.32 6.32 7 7 C3.04 8.98 -0.92 10.96 -5 13 C-5 12.01 -5 11.02 -5 10 C-4.34 10 -3.68 10 -3 10 C-3.061875 9.278125 -3.12375 8.55625 -3.1875 7.8125 C-2.96476068 4.47141026 -1.8717754 2.72967245 0 0 Z " fill="#9C1314" transform="translate(79,212)"/>
<path d="M0 0 C0.66 0 1.32 0 2 0 C2.79953138 3.28696233 3.09658936 4.71023192 2 8 C2.99 8.33 3.98 8.66 5 9 C5 9.66 5 10.32 5 11 C3.35 10.67 1.7 10.34 0 10 C0 10.99 0 11.98 0 13 C0.99 13 1.98 13 3 13 C2.67 14.65 2.34 16.3 2 18 C1.01 18.33 0.02 18.66 -1 19 C-2.8591451 15.86269264 -3.36368085 13.6368085 -3 10 C-2.3507041 8.65812182 -1.68268138 7.32520503 -1 6 C-0.61709538 4.00889599 -0.27395385 2.00899487 0 0 Z " fill="#CC9629" transform="translate(182,177)"/>
<path d="M0 0 C-1.65 0.33 -3.3 0.66 -5 1 C-5 1.66 -5 2.32 -5 3 C-4.01 3 -3.02 3 -2 3 C-2 3.66 -2 4.32 -2 5 C1.04213267 6.52106634 4.28047572 6.37429338 7.625 6.5625 C8.33140625 6.60568359 9.0378125 6.64886719 9.765625 6.69335938 C11.51018537 6.79944751 13.25506697 6.90022889 15 7 C15 7.33 15 7.66 15 8 C7.41 8.33 -0.18 8.66 -8 9 C-7.67 7.35 -7.34 5.7 -7 4 C-8.65 3.67 -10.3 3.34 -12 3 C-12.33 3.66 -12.66 4.32 -13 5 C-13.99 4.34 -14.98 3.68 -16 3 C-13.71068726 2.30364247 -11.4191243 1.61765623 -9.125 0.9375 C-8.47402344 0.73833984 -7.82304687 0.53917969 -7.15234375 0.33398438 C-2.2265625 -1.11328125 -2.2265625 -1.11328125 0 0 Z " fill="#48D1A2" transform="translate(251,180)"/>
<path d="M0 0 C4.4946338 1.25431641 7.59148411 2.78625645 11 6 C11.33 6.99 11.66 7.98 12 9 C11.01 9 10.02 9 9 9 C9 9.99 9 10.98 9 12 C6.61435923 11.42415568 4.33317216 10.77772405 2 10 C0.90341064 6.71023192 1.20046862 5.28696233 2 2 C1.34 2 0.68 2 0 2 C0 1.34 0 0.68 0 0 Z " fill="#D09E3D" transform="translate(288,9)"/>
<path d="M0 0 C4.29 0.99 8.58 1.98 13 3 C11.02 3.99 11.02 3.99 9 5 C8.01 4.67 7.02 4.34 6 4 C6 4.99 6 5.98 6 7 C6.66 7 7.32 7 8 7 C8 7.66 8 8.32 8 9 C8.66 9.33 9.32 9.66 10 10 C7.03 9.505 7.03 9.505 4 9 C4 9.66 4 10.32 4 11 C4.66 11.33 5.32 11.66 6 12 C3.36 11.67 0.72 11.34 -2 11 C-0.68 10.34 0.64 9.68 2 9 C1.34 8.67 0.68 8.34 0 8 C1.875 4.125 1.875 4.125 3 3 C2.34 2.67 1.68 2.34 1 2 C0.67 2.66 0.34 3.32 0 4 C0 2.68 0 1.36 0 0 Z " fill="#46D0A2" transform="translate(241,307)"/>
<path d="M0 0 C4.875 1.875 4.875 1.875 6 3 C6.04092937 5.33297433 6.04241723 7.66705225 6 10 C3.69 10.33 1.38 10.66 -1 11 C-1 10.01 -1 9.02 -1 8 C-1.99 7.34 -2.98 6.68 -4 6 C-3.67 5.01 -3.34 4.02 -3 3 C-2.01 3 -1.02 3 0 3 C0 2.01 0 1.02 0 0 Z " fill="#950203" transform="translate(146,244)"/>
<path d="M0 0 C1.2065625 0.0309375 1.2065625 0.0309375 2.4375 0.0625 C2.4375 3.23888639 2.28544215 4.52024433 0.4375 7.0625 C-2.1640625 7.671875 -2.1640625 7.671875 -5.1875 7.8125 C-6.19039062 7.86921875 -7.19328125 7.9259375 -8.2265625 7.984375 C-8.99742187 8.01015625 -9.76828125 8.0359375 -10.5625 8.0625 C-9.3125 5.125 -9.3125 5.125 -7.5625 2.0625 C-5.4375 1.25 -5.4375 1.25 -3.5625 1.0625 C-2.5625 0.0625 -2.5625 0.0625 0 0 Z " fill="#2ECB96" transform="translate(241.5625,182.9375)"/>
<path d="M0 0 C0.33 0.66 0.66 1.32 1 2 C1.66 2.33 2.32 2.66 3 3 C2.34 3 1.68 3 1 3 C1 3.66 1 4.32 1 5 C-0.57421875 6.55078125 -0.57421875 6.55078125 -2.6875 8.3125 C-5.14606323 10.39815946 -7.46650289 12.46650289 -9.75 14.75 C-11.73285671 16.73285671 -13.71149518 18.38957068 -16 20 C-17 17 -17 17 -16.22265625 14.95703125 C-15.83980469 14.24933594 -15.45695313 13.54164062 -15.0625 12.8125 C-14.68222656 12.09707031 -14.30195313 11.38164063 -13.91015625 10.64453125 C-13.45962891 9.83048828 -13.45962891 9.83048828 -13 9 C-12.34 9.66 -11.68 10.32 -11 11 C-10.01 11 -9.02 11 -8 11 C-7.67 9.68 -7.34 8.36 -7 7 C-6.01 7 -5.02 7 -4 7 C-4 6.34 -4 5.68 -4 5 C-2.68 4.67 -1.36 4.34 0 4 C0 2.68 0 1.36 0 0 Z " fill="#D29E3E" transform="translate(257,76)"/>
<path d="M0 0 C1.4540625 0.0309375 1.4540625 0.0309375 2.9375 0.0625 C-0.47297021 3.6735861 -3.94417929 6.31695286 -8.0625 9.0625 C-9.76578319 10.6917274 -11.44411281 12.34891357 -13.0625 14.0625 C-13.3925 12.7425 -13.7225 11.4225 -14.0625 10.0625 C-13.4025 10.0625 -12.7425 10.0625 -12.0625 10.0625 C-11.98 9.485 -11.8975 8.9075 -11.8125 8.3125 C-10.85718987 5.4465696 -9.27780827 4.0634236 -7.0625 2.0625 C-5.7425 2.7225 -4.4225 3.3825 -3.0625 4.0625 C-3.3925 3.0725 -3.7225 2.0825 -4.0625 1.0625 C-3.0625 0.0625 -3.0625 0.0625 0 0 Z " fill="#D5A64C" transform="translate(276.0625,62.9375)"/>
<path d="M0 0 C2.31 0.33 4.62 0.66 7 1 C7.125 6.75 7.125 6.75 6 9 C2.7 8.34 -0.6 7.68 -4 7 C-4 6.34 -4 5.68 -4 5 C-2.68 4.34 -1.36 3.68 0 3 C0 2.01 0 1.02 0 0 Z " fill="#990A0A" transform="translate(127,160)"/>
<path d="M0 0 C1.32 1.65 2.64 3.3 4 5 C3.34 5 2.68 5 2 5 C2.33 5.99 2.66 6.98 3 8 C2.34 8 1.68 8 1 8 C1 7.34 1 6.68 1 6 C0.01 6 -0.98 6 -2 6 C-2.99 8.97 -3.98 11.94 -5 15 C-11.875 9.375 -11.875 9.375 -13 6 C-10.525 6.495 -10.525 6.495 -8 7 C-8 7.99 -8 8.98 -8 10 C-7.34 10 -6.68 10 -6 10 C-5.67 8.68 -5.34 7.36 -5 6 C-4.34 6.33 -3.68 6.66 -3 7 C-3 6.34 -3 5.68 -3 5 C-2.34 4.67 -1.68 4.34 -1 4 C-1.33 3.34 -1.66 2.68 -2 2 C-1.34 2 -0.68 2 0 2 C0 1.34 0 0.68 0 0 Z " fill="#3ACB9A" transform="translate(303,261)"/>
<path d="M0 0 C2.31 0.33 4.62 0.66 7 1 C7 1.66 7 2.32 7 3 C8.32 3 9.64 3 11 3 C11 3.66 11 4.32 11 5 C10.34 5 9.68 5 9 5 C9 5.99 9 6.98 9 8 C10.32 8.33 11.64 8.66 13 9 C8.06729471 10.6442351 5.45975807 9.18615592 1 7 C1.66 5.68 2.32 4.36 3 3 C2.01 2.67 1.02 2.34 0 2 C0 1.34 0 0.68 0 0 Z " fill="#950102" transform="translate(112,155)"/>
<path d="M0 0 C-1.485 2.475 -1.485 2.475 -3 5 C-0.36 5 2.28 5 5 5 C1.98029212 6.56629708 -1.08650414 7.87625164 -4.25 9.125 C-5.14203125 9.47820312 -6.0340625 9.83140625 -6.953125 10.1953125 C-7.62859375 10.46085938 -8.3040625 10.72640625 -9 11 C-8.38461538 5.46153846 -8.38461538 5.46153846 -6.4375 3.125 C-5.7259375 2.568125 -5.7259375 2.568125 -5 2 C-6.32 1.67 -7.64 1.34 -9 1 C-3.375 -1.125 -3.375 -1.125 0 0 Z " fill="#4CD3A5" transform="translate(235,185)"/>
<path d="M0 0 C0.33 1.32 0.66 2.64 1 4 C1.66 4 2.32 4 3 4 C2.67 7.3 2.34 10.6 2 14 C1.34 14 0.68 14 0 14 C-1 11 -1 11 -1 9 C-2.98 9.99 -2.98 9.99 -5 11 C-4.30058404 7.85262818 -3.23921302 4.97411124 -2 2 C-1.34 2 -0.68 2 0 2 C0 1.34 0 0.68 0 0 Z " fill="#D39F41" transform="translate(258,40)"/>
<path d="M0 0 C0.99 0.33 1.98 0.66 3 1 C2.31164062 2.06927734 2.31164062 2.06927734 1.609375 3.16015625 C-1.72992305 8.37254796 -4.99357541 13.58843574 -8 19 C-9.37432457 15.18243176 -8.67975039 11.92744671 -8 8 C-6.35 8 -4.7 8 -3 8 C-3.33 6.68 -3.66 5.36 -4 4 C-2.68 3.67 -1.36 3.34 0 3 C0 2.01 0 1.02 0 0 Z " fill="#D7AA55" transform="translate(221,117)"/>
<path d="M0 0 C0.28875 0.61875 0.5775 1.2375 0.875 1.875 C1.93720042 4.13325765 1.93720042 4.13325765 4 6 C4 7.32 4 8.64 4 10 C2.66666667 9.33333333 1.33333333 8.66666667 0 8 C-0.33 8.66 -0.66 9.32 -1 10 C-1.66 10 -2.32 10 -3 10 C-3.103125 10.721875 -3.20625 11.44375 -3.3125 12.1875 C-4.05986932 15.24491993 -5.28045189 17.38329635 -7 20 C-7.33 19.34 -7.66 18.68 -8 18 C-7.109375 15.64453125 -7.109375 15.64453125 -5.75 12.8125 C-5.28722656 11.8328125 -4.82445312 10.853125 -4.34765625 9.84375 C-3.68056641 8.43609375 -3.68056641 8.43609375 -3 7 C-1.97708646 4.67555835 -0.98784281 2.33962772 0 0 Z " fill="#D4A346" transform="translate(201,122)"/>
<path d="M0 0 C0.99 0 1.98 0 3 0 C3.0270043 1.45823212 3.04639787 2.91660675 3.0625 4.375 C3.07410156 5.18710938 3.08570313 5.99921875 3.09765625 6.8359375 C3 9 3 9 2 11 C1.77532169 12.53668865 1.59203195 14.07968054 1.4375 15.625 C1.35371094 16.44226563 1.26992187 17.25953125 1.18359375 18.1015625 C1.12300781 18.72804687 1.06242188 19.35453125 1 20 C0.34 20 -0.32 20 -1 20 C-1.18451025 6.3667426 -1.18451025 6.3667426 0 0 Z " fill="#D3A245" transform="translate(173,223)"/>
<path d="M0 0 C1.125 3.75 1.125 3.75 0 6 C0.66 6.66 1.32 7.32 2 8 C1.625 10.125 1.625 10.125 1 12 C-0.32 10.68 -1.64 9.36 -3 8 C-2.67 9.65 -2.34 11.3 -2 13 C-2.99 12.67 -3.98 12.34 -5 12 C-5 13.32 -5 14.64 -5 16 C-5.99 16 -6.98 16 -8 16 C-6.49387553 10.66010414 -4.01822198 4.01822198 0 0 Z " fill="#D4A852" transform="translate(210,106)"/>
<path d="M0 0 C0.350625 0.66 0.70125 1.32 1.0625 2 C2.94233773 4.40267624 2.94233773 4.40267624 6.5 4.125 C7.655 4.08375 8.81 4.0425 10 4 C10.99 4.66 11.98 5.32 13 6 C12.67 6.66 12.34 7.32 12 8 C13.32 8 14.64 8 16 8 C16.33 8.99 16.66 9.98 17 11 C12.69178945 9.62254493 8.43321297 8.25057115 4.3125 6.375 C1.1506675 5.06254122 -1.61526954 4.41277201 -5 4 C-5 3.67 -5 3.34 -5 3 C-3.35 3 -1.7 3 0 3 C0 2.01 0 1.02 0 0 Z " fill="#4FD3A7" transform="translate(277,185)"/>
<path d="M0 0 C1.10102197 3.30306592 0.95067299 4.71585695 0 8 C-2.00032373 9.00016187 -3.83125748 9.49396008 -6 10 C-6 11.32 -6 12.64 -6 14 C-5.01 14.33 -4.02 14.66 -3 15 C-3 15.66 -3 16.32 -3 17 C-5.64 16.67 -8.28 16.34 -11 16 C-9.68 13.69 -8.36 11.38 -7 9 C-6.34 9 -5.68 9 -5 9 C-5 8.01 -5 7.02 -5 6 C-4.34 6 -3.68 6 -3 6 C-2.690625 5.38125 -2.38125 4.7625 -2.0625 4.125 C-1.375 2.75 -0.6875 1.375 0 0 Z " fill="#D7A952" transform="translate(234,70)"/>
<path d="M0 0 C0.33 0 0.66 0 1 0 C1 2.64 1 5.28 1 8 C0.34 8 -0.32 8 -1 8 C-1 9.65 -1 11.3 -1 13 C-0.34 13 0.32 13 1 13 C1 15.97 1 18.94 1 22 C0.67 20.68 0.34 19.36 0 18 C-0.66 18 -1.32 18 -2 18 C-2.05397335 15.5622037 -2.09365616 13.12560315 -2.125 10.6875 C-2.14175781 9.99720703 -2.15851562 9.30691406 -2.17578125 8.59570312 C-2.21217794 4.82864604 -2.14378864 3.21568296 0 0 Z " fill="#B04C4D" transform="translate(17,177)"/>
<path d="M0 0 C1.32 0 2.64 0 4 0 C2.57369692 3.33049122 0.84985604 5.31738937 -1.875 7.6875 C-2.55304688 8.28949219 -3.23109375 8.89148438 -3.9296875 9.51171875 C-6.01065834 11.00766194 -7.49630826 11.5789756 -10 12 C-10 11.34 -10 10.68 -10 10 C-9.34 10 -8.68 10 -8 10 C-8 9.34 -8 8.68 -8 8 C-6.68 7.67 -5.36 7.34 -4 7 C-4 6.01 -4 5.02 -4 4 C-3.01 4 -2.02 4 -1 4 C-0.67 2.68 -0.34 1.36 0 0 Z " fill="#A53132" transform="translate(144,262)"/>
<path d="M0 0 C0.33 0 0.66 0 1 0 C1 5.28 1 10.56 1 16 C1.66 16 2.32 16 3 16 C3 18.64 3 21.28 3 24 C2.67 24 2.34 24 2 24 C1.67 22.02 1.34 20.04 1 18 C0.67 18 0.34 18 0 18 C-0.33 19.98 -0.66 21.96 -1 24 C-1.33 24 -1.66 24 -2 24 C-2.10103455 18.39258264 -1.76082036 13.05193239 -1 7.5 C-0.90460938 6.77296875 -0.80921875 6.0459375 -0.7109375 5.296875 C-0.47853833 3.53064133 -0.23993362 1.76522594 0 0 Z " fill="#DEBA75" transform="translate(174,206)"/>
<path d="M0 0 C6 7.2 6 7.2 6 12 C4.0625 11.1875 4.0625 11.1875 2 10 C1.67 9.01 1.34 8.02 1 7 C-1.00016466 5.79117904 -1.00016466 5.79117904 -3 5 C-2.01 3.35 -1.02 1.7 0 0 Z " fill="#AC4849" transform="translate(141,173)"/>
<path d="M0 0 C0.93065133 2.60582371 1.14917407 3.64198224 0.0625 6.25 C-0.4634375 7.11625 -0.4634375 7.11625 -1 8 C-0.01 8.33 0.98 8.66 2 9 C-0.31 11.64 -2.62 14.28 -5 17 C-5.66 16.34 -6.32 15.68 -7 15 C-6.34 14.34 -5.68 13.68 -5 13 C-4.39688385 11.31238142 -3.86149763 9.59985524 -3.375 7.875 C-3.11460937 6.96492187 -2.85421875 6.05484375 -2.5859375 5.1171875 C-2.39257812 4.41851562 -2.19921875 3.71984375 -2 3 C-1.34 3 -0.68 3 0 3 C0 2.01 0 1.02 0 0 Z " fill="#5ED7AE" transform="translate(201,203)"/>
<path d="M0 0 C0.26218749 3.14624993 0.24754367 4.61837017 -1.5 7.3125 C-1.995 7.869375 -2.49 8.42625 -3 9 C-3.33 6.69 -3.66 4.38 -4 2 C-7.63 2 -11.26 2 -15 2 C-15 1.67 -15 1.34 -15 1 C-9.9752761 0.37470103 -5.07471573 -0.13012092 0 0 Z " fill="#A73D3E" transform="translate(99,201)"/>
<path d="M0 0 C0.66 0.99 1.32 1.98 2 3 C1.01 3.66 0.02 4.32 -1 5 C-1.33 5.99 -1.66 6.98 -2 8 C-2.99 8 -3.98 8 -5 8 C-5 9.65 -5 11.3 -5 13 C-5.99 13 -6.98 13 -8 13 C-8 13.66 -8 14.32 -8 15 C-8.66 14.67 -9.32 14.34 -10 14 C-7.00168141 8.97303182 -3.85624293 4.40713477 0 0 Z " fill="#A93C3D" transform="translate(33,242)"/>
<path d="M0 0 C0.66 0 1.32 0 2 0 C2 4.29 2 8.58 2 13 C1.01 13 0.02 13 -1 13 C-1.02696365 11.20841511 -1.04637917 9.41671527 -1.0625 7.625 C-1.07410156 6.62726563 -1.08570313 5.62953125 -1.09765625 4.6015625 C-1 2 -1 2 0 0 Z " fill="#CD9628" transform="translate(176,209)"/>
<path d="M0 0 C1.32 0.66 2.64 1.32 4 2 C3.67 2.99 3.34 3.98 3 5 C3.66 5 4.32 5 5 5 C4.67 5.99 4.34 6.98 4 8 C1.69 7.67 -0.62 7.34 -3 7 C-2.01 4.69 -1.02 2.38 0 0 Z " fill="#2BCB94" transform="translate(207,195)"/>
<path d="M0 0 C0.99 0.33 1.98 0.66 3 1 C4.1875 3.5625 4.1875 3.5625 5 6 C3.68 5.34 2.36 4.68 1 4 C1.2165625 5.21236328 1.2165625 5.21236328 1.4375 6.44921875 C1.623125 7.51785156 1.80875 8.58648437 2 9.6875 C2.185625 10.74324219 2.37125 11.79898437 2.5625 12.88671875 C2.95068074 15.64904062 3.08259976 18.21742043 3 21 C-0.75465464 14.49193196 -0.1164533 7.27186141 0 0 Z " fill="#6CDBB5" transform="translate(192,266)"/>
<path d="M0 0 C0.99 0.33 1.98 0.66 3 1 C1.68 2.65 0.36 4.3 -1 6 C-0.01 6.33 0.98 6.66 2 7 C1 8 1 8 -1.5625 8.0625 C-2.366875 8.041875 -3.17125 8.02125 -4 8 C-4.33 6.35 -4.66 4.7 -5 3 C-3.35 2.67 -1.7 2.34 0 2 C0 1.34 0 0.68 0 0 Z " fill="#2ACA94" transform="translate(242,309)"/>
<path d="M0 0 C0.66 0 1.32 0 2 0 C2.33 0.33 2.66 0.66 3 1 C3.99 1.66 4.98 2.32 6 3 C4.35 5.64 2.7 8.28 1 11 C-0.33332095 8.3333581 0.32897967 6.83319697 1 4 C0.01 4.33 -0.98 4.66 -2 5 C-2 4.01 -2 3.02 -2 2 C-1.34 2 -0.68 2 0 2 C0 1.34 0 0.68 0 0 Z " fill="#D2A347" transform="translate(206,134)"/>
<path d="M0 0 C1.93922422 0.45098238 3.87633594 0.91105559 5.8125 1.375 C6.89144531 1.63023437 7.97039062 1.88546875 9.08203125 2.1484375 C12 3 12 3 15 5 C12.69 4.67 10.38 4.34 8 4 C7.67 4.99 7.34 5.98 7 7 C5.68 6.67 4.36 6.34 3 6 C3.66 4.68 4.32 3.36 5 2 C3.35 2 1.7 2 0 2 C0 1.34 0 0.68 0 0 Z " fill="#A22424" transform="translate(104,151)"/>
<path d="M0 0 C0.33 0.66 0.66 1.32 1 2 C2.32 1.67 3.64 1.34 5 1 C4.67 2.32 4.34 3.64 4 5 C1.525 4.01 1.525 4.01 -1 3 C-1.0825 3.763125 -1.165 4.52625 -1.25 5.3125 C-2.14615794 8.52373261 -3.21611025 9.29374499 -6 11 C-4.74194623 6.49197399 -3.09592835 3.5087188 0 0 Z " fill="#D4A245" transform="translate(217,95)"/>
<path d="M0 0 C0.99 0.99 1.98 1.98 3 3 C2 6 2 6 -1 7.5625 C-1.99 8.036875 -2.98 8.51125 -4 9 C-4.33 9.66 -4.66 10.32 -5 11 C-5.66 11 -6.32 11 -7 11 C-6 9 -5 7 -4 5 C-3.34 5 -2.68 5 -2 5 C-1.34 3.35 -0.68 1.7 0 0 Z " fill="#D6A750" transform="translate(242,59)"/>
<path d="M0 0 C0.99 0.33 1.98 0.66 3 1 C1.02 1.99 1.02 1.99 -1 3 C-1 3.66 -1 4.32 -1 5 C-1.66 5 -2.32 5 -3 5 C-3 5.99 -3 6.98 -3 8 C-4.65 7.67 -6.3 7.34 -8 7 C-5.42215154 4.35247996 -3.08351902 2.05567935 0 0 Z " fill="#980303" transform="translate(48,160)"/>
<path d="M0 0 C0.33 0.66 0.66 1.32 1 2 C1.66 2.33 2.32 2.66 3 3 C2.34 3 1.68 3 1 3 C1 3.66 1 4.32 1 5 C-0.6796875 6.65625 -0.6796875 6.65625 -2.875 8.5 C-4.99035504 10.28933258 -7.04019124 12.04019124 -9 14 C-8.67 12.02 -8.34 10.04 -8 8 C-6.68 7.67 -5.36 7.34 -4 7 C-4 6.34 -4 5.68 -4 5 C-2.68 4.67 -1.36 4.34 0 4 C0 2.68 0 1.36 0 0 Z " fill="#D6AA50" transform="translate(257,76)"/>
<path d="M0 0 C0.66 0.99 1.32 1.98 2 3 C1.01 4.485 1.01 4.485 0 6 C-0.66 6 -1.32 6 -2 6 C-2 6.66 -2 7.32 -2 8 C-3.32 8 -4.64 8 -6 8 C-6 8.66 -6 9.32 -6 10 C-6.66 9.67 -7.32 9.34 -8 9 C-7.67 8.34 -7.34 7.68 -7 7 C-6.34 7 -5.68 7 -5 7 C-4.67 6.01 -4.34 5.02 -4 4 C-3.34 4 -2.68 4 -2 4 C-2 3.34 -2 2.68 -2 2 C-1.34 2 -0.68 2 0 2 C0 1.34 0 0.68 0 0 Z " fill="#D7A84F" transform="translate(279,18)"/>
<path d="M0 0 C0.99 0 1.98 0 3 0 C3 1.32 3 2.64 3 4 C2.01 4.33 1.02 4.66 0 5 C-0.73323796 7.01508358 -0.73323796 7.01508358 -1 9 C-1.66 8.34 -2.32 7.68 -3 7 C-2.67028521 3.70285207 -2.3773161 2.3773161 0 0 Z " fill="#A00304" transform="translate(44,243)"/>
<path d="M0 0 C3 1 3 1 4.1875 3.0625 C4.455625 3.701875 4.72375 4.34125 5 5 C1.535 6.485 1.535 6.485 -2 8 C-2.33 7.01 -2.66 6.02 -3 5 C-2.01 5 -1.02 5 0 5 C0 3.35 0 1.7 0 0 Z " fill="#D6A853" transform="translate(292,48)"/>
<path d="M0 0 C1.67542976 0.28604898 3.34385343 0.61781233 5 1 C5 1.66 5 2.32 5 3 C5.66 3 6.32 3 7 3 C7 3.66 7 4.32 7 5 C5.02 5.33 3.04 5.66 1 6 C0.34 4.35 -0.32 2.7 -1 1 C-0.67 0.67 -0.34 0.34 0 0 Z " fill="#2ACC95" transform="translate(223,300)"/>
<path d="M0 0 C0.66 0 1.32 0 2 0 C2.33 3.96 2.66 7.92 3 12 C2.34 12 1.68 12 1 12 C-0.79760213 8.18009548 -1.28743526 5.21571713 -1 1 C-0.67 0.67 -0.34 0.34 0 0 Z " fill="#AA3D3E" transform="translate(44,256)"/>
<path d="M0 0 C0.33 0 0.66 0 1 0 C1.39622401 4.22638947 0.27688086 7.22078729 -1.265625 11.0625 C-2.12889544 13.34006457 -2.62441251 15.59624008 -3 18 C-3.33 18 -3.66 18 -4 18 C-3.03644647 7.44191344 -3.03644647 7.44191344 -2 3 C-1.34 3 -0.68 3 0 3 C0 2.01 0 1.02 0 0 Z " fill="#DCB569" transform="translate(182,201)"/>
<path d="M0 0 C0 0.66 0 1.32 0 2 C-0.66 2 -1.32 2 -2 2 C-2 3.32 -2 4.64 -2 6 C-4.97 5.505 -4.97 5.505 -8 5 C-8 3 -8 3 -6.8125 1.375 C-4.44439338 -0.42149467 -2.90102749 -0.23521845 0 0 Z " fill="#2ACD96" transform="translate(297,188)"/>
<path d="M0 0 C10.55808656 0.77904328 10.55808656 0.77904328 15 3 C14.01 3.33 13.02 3.66 12 4 C11.67 4.66 11.34 5.32 11 6 C10.34 5.67 9.68 5.34 9 5 C9 4.01 9 3.02 9 2 C6.36 2 3.72 2 1 2 C0.67 1.34 0.34 0.68 0 0 Z " fill="#54D4A9" transform="translate(282,179)"/>
<path d="M0 0 C1.65 0 3.3 0 5 0 C5 0.66 5 1.32 5 2 C3.58398286 2.48108275 2.16715563 2.95978141 0.75 3.4375 C-0.03890625 3.70433594 -0.8278125 3.97117188 -1.640625 4.24609375 C-3.74821988 4.91954708 -5.84753973 5.49150595 -8 6 C-8 5.01 -8 4.02 -8 3 C-5.29120665 1.64560332 -2.99066732 1.93498549 0 2 C0 1.34 0 0.68 0 0 Z " fill="#A73434" transform="translate(59,158)"/>
<path d="M0 0 C0.66 0.33 1.32 0.66 2 1 C0.3125 3.5 0.3125 3.5 -2 6 C-4.75 6.3125 -4.75 6.3125 -7 6 C-7 6.66 -7 7.32 -7 8 C-7.99 7.67 -8.98 7.34 -10 7 C-8.15494051 5.15494051 -6.6932977 4.17606951 -4.4375 2.9375 C-1.259699 1.34929866 -1.259699 1.34929866 0 0 Z " fill="#A33132" transform="translate(120,267)"/>
<path d="M0 0 C0.66 0 1.32 0 2 0 C1.67 1.32 1.34 2.64 1 4 C0.34 4 -0.32 4 -1 4 C-1.66 6.97 -2.32 9.94 -3 13 C-3.33 13 -3.66 13 -4 13 C-3.67 9.37 -3.34 5.74 -3 2 C-2.01 2 -1.02 2 0 2 C0 1.34 0 0.68 0 0 Z " fill="#AA4343" transform="translate(50,243)"/>
<path d="M0 0 C0.66 0.33 1.32 0.66 2 1 C0.35 5.29 -1.3 9.58 -3 14 C-3.33 14 -3.66 14 -4 14 C-4 11.69 -4 9.38 -4 7 C-3.34 7 -2.68 7 -2 7 C-2 6.01 -2 5.02 -2 4 C-1.34 4 -0.68 4 0 4 C0 2.68 0 1.36 0 0 Z " fill="#DAAD59" transform="translate(198,157)"/>
<path d="M0 0 C0.33 0 0.66 0 1 0 C1.33 2.31 1.66 4.62 2 7 C0.35 7.33 -1.3 7.66 -3 8 C-2.37240135 5.07120629 -1.41377341 2.63904371 0 0 Z " fill="#27CB93" transform="translate(203,203)"/>
<path d="M0 0 C0.99 0.33 1.98 0.66 3 1 C2.34 1 1.68 1 1 1 C1 1.66 1 2.32 1 3 C0.34 3 -0.32 3 -1 3 C-1 3.66 -1 4.32 -1 5 C-3.5 6.625 -3.5 6.625 -6 8 C-6.33 7.01 -6.66 6.02 -7 5 C-5.90554162 4.13342884 -4.79902219 3.28207276 -3.6875 2.4375 C-3.07261719 1.96183594 -2.45773438 1.48617187 -1.82421875 0.99609375 C-1.22222656 0.66738281 -0.62023437 0.33867187 0 0 Z " fill="#62D7B0" transform="translate(211,202)"/>
<path d="M0 0 C0.33 0 0.66 0 1 0 C1.05437607 1.58294782 1.09296271 3.16644256 1.125 4.75 C1.14820313 5.63171875 1.17140625 6.5134375 1.1953125 7.421875 C0.99139502 10.1135858 0.36551721 11.69904974 -1 14 C-1.33 14 -1.66 14 -2 14 C-2.21192221 8.80790596 -1.5912689 4.873261 0 0 Z " fill="#DAB263" transform="translate(181,173)"/>
<path d="M0 0 C2.75799098 1.37899549 3.43852596 3.37672362 5 6 C6.58245275 7.75149165 6.58245275 7.75149165 8 9 C4.85375007 9.26218749 3.38162983 9.24754367 0.6875 7.5 C0.130625 7.005 -0.42625 6.51 -1 6 C-0.835 5.38125 -0.67 4.7625 -0.5 4.125 C0.07634644 2.03936614 0.07634644 2.03936614 0 0 Z " fill="#D9AC59" transform="translate(306,31)"/>
<path d="M0 0 C1.98 0.99 3.96 1.98 6 3 C6 3.99 6 4.98 6 6 C5.34 6 4.68 6 4 6 C4 5.34 4 4.68 4 4 C3.34 4 2.68 4 2 4 C2 4.66 2 5.32 2 6 C0.68 6 -0.64 6 -2 6 C-1.67 5.34 -1.34 4.68 -1 4 C-0.34 4.33 0.32 4.66 1 5 C0.67 3.35 0.34 1.7 0 0 Z " fill="#47D3A3" transform="translate(307,266)"/>
<path d="M0 0 C0.99 0.33 1.98 0.66 3 1 C3 2.65 3 4.3 3 6 C1.02 6 -0.96 6 -3 6 C-3 5.34 -3 4.68 -3 4 C-2.34 4 -1.68 4 -1 4 C-0.67 2.68 -0.34 1.36 0 0 Z " fill="#2FCA95" transform="translate(309,237)"/>
<path d="M0 0 C2.97 0 5.94 0 9 0 C9.33 0.66 9.66 1.32 10 2 C6.7 2.66 3.4 3.32 0 4 C0 2.68 0 1.36 0 0 Z " fill="#25C991" transform="translate(246,234)"/>
<path d="M0 0 C5.28 0.33 10.56 0.66 16 1 C16 1.33 16 1.66 16 2 C8.08 2.495 8.08 2.495 0 3 C0 2.01 0 1.02 0 0 Z " fill="#8E0202" transform="translate(47,204)"/>
<path d="M0 0 C0.33 0 0.66 0 1 0 C0.44687265 4.02992782 -0.1558062 8.02022924 -1 12 C-1.99 12 -2.98 12 -4 12 C-2.66666667 8 -1.33333333 4 0 0 Z " fill="#D9AE5B" transform="translate(190,148)"/>
<path d="M0 0 C0.66 0 1.32 0 2 0 C2 0.99 2 1.98 2 3 C2.99 3 3.98 3 5 3 C5 6.63 5 10.26 5 14 C4.67 14 4.34 14 4 14 C3.87882812 13.40832031 3.75765625 12.81664062 3.6328125 12.20703125 C2.73255357 7.96196415 1.79543379 3.97560339 0 0 Z " fill="#5FD6AE" transform="translate(307,207)"/>
<path d="M0 0 C0.33 0 0.66 0 1 0 C1.1875 2.375 1.1875 2.375 1 5 C0.01 5.66 -0.98 6.32 -2 7 C-2 6.01 -2 5.02 -2 4 C-2.99 4 -3.98 4 -5 4 C-5 3.01 -5 2.02 -5 1 C-2.525 1.495 -2.525 1.495 0 2 C0 1.34 0 0.68 0 0 Z " fill="#D5A850" transform="translate(187,186)"/>
<path d="M0 0 C3.63 0 7.26 0 11 0 C8.2134483 2.7865517 5.84575573 2.65662895 2 3 C1.34 2.67 0.68 2.34 0 2 C0 1.34 0 0.68 0 0 Z " fill="#24C991" transform="translate(273,312)"/>
<path d="M0 0 C0.66 0.33 1.32 0.66 2 1 C1.04882866 2.1725131 0.08882991 3.33787015 -0.875 4.5 C-1.40867187 5.1496875 -1.94234375 5.799375 -2.4921875 6.46875 C-2.98976562 6.9740625 -3.48734375 7.479375 -4 8 C-4.66 8 -5.32 8 -6 8 C-6 7.01 -6 6.02 -6 5 C-5.34 5 -4.68 5 -4 5 C-4 4.01 -4 3.02 -4 2 C-2.125 0.9375 -2.125 0.9375 0 0 Z " fill="#A93F40" transform="translate(58,235)"/>
<path d="M0 0 C-1.3125 1.5 -1.3125 1.5 -3 3 C-3.99 3 -4.98 3 -6 3 C-6.33 3.99 -6.66 4.98 -7 6 C-8.24546405 3.50907189 -7.7767578 2.58919267 -7 0 C-2.25 -1.125 -2.25 -1.125 0 0 Z " fill="#2AC993" transform="translate(232,187)"/>
<path d="M0 0 C0.66 0.99 1.32 1.98 2 3 C0.71034824 4.37562854 -0.62689293 5.70766393 -2 7 C-2.66 7 -3.32 7 -4 7 C-3.43628586 3.73045798 -2.50037734 2.17424117 0 0 Z " fill="#CE9835" transform="translate(257,44)"/>
<path d="M0 0 C3.77545388 1.09068668 6.47043472 1.9083091 9 5 C7.35 5.33 5.7 5.66 4 6 C4 5.34 4 4.68 4 4 C3.34 4 2.68 4 2 4 C2 3.34 2 2.68 2 2 C1.34 2 0.68 2 0 2 C0 1.34 0 0.68 0 0 Z " fill="#DAB263" transform="translate(288,9)"/>
<path d="M0 0 C1.32 1.65 2.64 3.3 4 5 C3.34 5 2.68 5 2 5 C2.33 5.99 2.66 6.98 3 8 C2.34 8 1.68 8 1 8 C1 7.34 1 6.68 1 6 C0.01 5.67 -0.98 5.34 -2 5 C-2 4.01 -2 3.02 -2 2 C-1.34 2 -0.68 2 0 2 C0 1.34 0 0.68 0 0 Z " fill="#58D2A7" transform="translate(303,261)"/>
<path d="M0 0 C1.32 0.99 2.64 1.98 4 3 C1.69 4.32 -0.62 5.64 -3 7 C-3 6.34 -3 5.68 -3 5 C-3.66 4.67 -4.32 4.34 -5 4 C-3.68 4 -2.36 4 -1 4 C-0.67 2.68 -0.34 1.36 0 0 Z " fill="#A42526" transform="translate(63,228)"/>
<path d="M0 0 C0.33 0 0.66 0 1 0 C1 2.64 1 5.28 1 8 C0.01 8.33 -0.98 8.66 -2 9 C-2.25 3.375 -2.25 3.375 0 0 Z " fill="#B55859" transform="translate(17,177)"/>
<path d="M0 0 C2 2 2 2 2 5 C1.34 5 0.68 5 0 5 C-0.33 7.31 -0.66 9.62 -1 12 C-1.66 11.67 -2.32 11.34 -3 11 C-2.01 7.37 -1.02 3.74 0 0 Z " fill="#DBB366" transform="translate(185,161)"/>
<path d="M0 0 C0.99 0.33 1.98 0.66 3 1 C2.67 1.99 2.34 2.98 2 4 C1.34 4 0.68 4 0 4 C-0.66 5.32 -1.32 6.64 -2 8 C-2.33 8 -2.66 8 -3 8 C-3 6.02 -3 4.04 -3 2 C-1.68 2.33 -0.36 2.66 1 3 C0.67 2.01 0.34 1.02 0 0 Z " fill="#D6A74C" transform="translate(238,95)"/>
<path d="M0 0 C0.66 0 1.32 0 2 0 C2 1.32 2 2.64 2 4 C1.01 4 0.02 4 -1 4 C-1.66 5.32 -2.32 6.64 -3 8 C-3.66 7.67 -4.32 7.34 -5 7 C-4.21654285 5.82780457 -3.42297164 4.66236332 -2.625 3.5 C-2.18414062 2.8503125 -1.74328125 2.200625 -1.2890625 1.53125 C-0.65097656 0.77328125 -0.65097656 0.77328125 0 0 Z " fill="#D9AF5D" transform="translate(265,32)"/>
<path d="M0 0 C0.33 0.99 0.66 1.98 1 3 C-0.4375 5.6875 -0.4375 5.6875 -2 8 C-3.32 7.67 -4.64 7.34 -6 7 C-4.02 4.69 -2.04 2.38 0 0 Z " fill="#A94141" transform="translate(142,247)"/>
<path d="M0 0 C-2.85306797 2.32472205 -5.54074837 3.7508258 -9 5 C-9 4.01 -9 3.02 -9 2 C-5.86501708 0.14223235 -3.62528568 -0.20140476 0 0 Z " fill="#66DAB3" transform="translate(223,197)"/>
<path d="M0 0 C0.99 0.33 1.98 0.66 3 1 C3 2.65 3 4.3 3 6 C1.68 6 0.36 6 -1 6 C-0.67 4.02 -0.34 2.04 0 0 Z " fill="#CD9327" transform="translate(184,169)"/>
<path d="M0 0 C1.32 0.33 2.64 0.66 4 1 C2.02 3.31 0.04 5.62 -2 8 C-2.33 7.01 -2.66 6.02 -3 5 C-2.34 4.67 -1.68 4.34 -1 4 C-0.34786708 1.97536745 -0.34786708 1.97536745 0 0 Z " fill="#DAAF5D" transform="translate(231,103)"/>
<path d="M0 0 C0.66 0.33 1.32 0.66 2 1 C1.34 1.66 0.68 2.32 0 3 C-0.680625 3.8353125 -0.680625 3.8353125 -1.375 4.6875 C-1.91125 5.120625 -2.4475 5.55375 -3 6 C-4.32 5.67 -5.64 5.34 -7 5 C-4.69 3.35 -2.38 1.7 0 0 Z " fill="#A73435" transform="translate(129,261)"/>
<path d="M0 0 C0 2.62113708 -0.31292445 4.50935112 -1 7 C-2.65 7 -4.3 7 -6 7 C-4.77065985 3.31197956 -3.06140622 2.27643027 0 0 Z " fill="#AE4748" transform="translate(40,235)"/>
<path d="M0 0 C0.33 0 0.66 0 1 0 C1 1.65 1 3.3 1 5 C0.01 5 -0.98 5 -2 5 C-2 6.65 -2 8.3 -2 10 C-2.33 10 -2.66 10 -3 10 C-3.23226952 6.59338044 -3.35720302 4.59016151 -1.5625 1.625 C-0.7890625 0.820625 -0.7890625 0.820625 0 0 Z " fill="#CD9426" transform="translate(193,166)"/>
<path d="M0 0 C0.33 0.99 0.66 1.98 1 3 C1.66 3.33 2.32 3.66 3 4 C2.319375 3.855625 1.63875 3.71125 0.9375 3.5625 C-2.36273082 2.93054091 -5.67144426 2.45686059 -9 2 C-9 1.67 -9 1.34 -9 1 C-4.545 0.505 -4.545 0.505 0 0 Z " fill="#AE4547" transform="translate(103,156)"/>
<path d="M0 0 C0.33 0 0.66 0 1 0 C1.50423019 5.29441695 0.18923033 7.81413519 -3 12 C-4 10 -4 10 -3.22265625 7.6171875 C-2.83980469 6.71226562 -2.45695313 5.80734375 -2.0625 4.875 C-1.68222656 3.96492187 -1.30195313 3.05484375 -0.91015625 2.1171875 C-0.60980469 1.41851562 -0.30945313 0.71984375 0 0 Z " fill="#D8B060" transform="translate(197,130)"/>
<path d="M0 0 C1.98 0.66 3.96 1.32 6 2 C5.01 2.99 4.02 3.98 3 5 C1.68 4.34 0.36 3.68 -1 3 C-0.67 2.01 -0.34 1.02 0 0 Z " fill="#2DC994" transform="translate(222,307)"/>
<path d="M0 0 C0.99 0.33 1.98 0.66 3 1 C1.02 3.97 1.02 3.97 -1 7 C-1.66 6.67 -2.32 6.34 -3 6 C-2.67 4.68 -2.34 3.36 -2 2 C-1.34 2 -0.68 2 0 2 C0 1.34 0 0.68 0 0 Z " fill="#56D6AA" transform="translate(325,305)"/>
<path d="M0 0 C2.475 0.495 2.475 0.495 5 1 C5.33 2.65 5.66 4.3 6 6 C3.37812506 4.95125002 2.20628639 4.35068687 0.75 1.875 C0.5025 1.25625 0.255 0.6375 0 0 Z " fill="#66D8B0" transform="translate(290,267)"/>
<path d="M0 0 C0.99 0.33 1.98 0.66 3 1 C0.03 3.475 0.03 3.475 -3 6 C-3.33 5.01 -3.66 4.02 -4 3 C-2.1875 1.4375 -2.1875 1.4375 0 0 Z " fill="#71DCB8" transform="translate(315,237)"/>
<path d="M0 0 C0.99 0 1.98 0 3 0 C2.43628586 3.26954202 1.50037734 4.82575883 -1 7 C-0.67 4.69 -0.34 2.38 0 0 Z " fill="#D9AE5E" transform="translate(201,150)"/>
<path d="M0 0 C0 0.66 0 1.32 0 2 C-1.98 2.33 -3.96 2.66 -6 3 C-6 2.01 -6 1.02 -6 0 C-3.50907189 -1.24546405 -2.58919267 -0.7767578 0 0 Z " fill="#CB972C" transform="translate(312,42)"/>
</svg>
